ply
format ascii 1.0
comment Created by Blender 2.73 (sub 0) - www.blender.org, source file: ''
element vertex 18
property float x
property float y
property float z
element face 32
property list uchar uint vertex_indices
end_header
0.000000 128.000000 0.000000
0.000000 128.000000 -128.000000
-48.983482 128.000000 -118.256577
-90.509666 128.000000 -90.509666
-118.256577 128.000000 -48.983479
-128.000000 128.000000 0.000006
-118.256577 128.000000 48.983490
-90.509666 128.000000 90.509666
-48.983486 128.000000 118.256577
-0.000019 128.000000 128.000000
48.983452 128.000000 118.256592
90.509644 128.000000 90.509697
118.256577 128.000000 48.983498
128.000000 128.000000 -0.000002
118.256569 128.000000 -48.983501
90.509636 128.000000 -90.509697
48.983421 128.000000 -118.256607
0.000000 -128.000000 0.000000
3 0 1 2
3 0 2 3
3 0 3 4
3 0 4 5
3 0 5 6
3 0 6 7
3 0 7 8
3 0 8 9
3 0 9 10
3 0 10 11
3 0 11 12
3 0 12 13
3 0 13 14
3 0 14 15
3 0 15 16
3 0 16 1
3 1 17 2
3 2 17 3
3 3 17 4
3 4 17 5
3 5 17 6
3 6 17 7
3 7 17 8
3 8 17 9
3 9 17 10
3 10 17 11
3 11 17 12
3 12 17 13
3 13 17 14
3 14 17 15
3 15 17 16
3 16 17 1
