ply
format ascii 1.0
comment Created by Blender 2.73 (sub 0) - www.blender.org, source file: ''
element vertex 507
property float x
property float y
property float z
element face 968
property list uchar uint vertex_indices
end_header
-60.000000 -31.000000 97.000000
-56.000000 -21.000000 98.000000
-64.000000 -12.000000 88.000000
64.000000 -12.000000 88.000000
56.000000 -21.000000 98.000000
60.000000 -31.000000 97.000000
-72.000000 -31.000000 86.000000
-70.000000 -7.000000 74.000000
70.000000 -7.000000 74.000000
72.000000 -31.000000 86.000000
-45.000000 -4.000000 92.000000
-45.000000 3.000000 79.000000
45.000000 3.000000 79.000000
45.000000 -4.000000 92.000000
-45.000000 -17.000000 100.000000
45.000000 -17.000000 100.000000
-35.000000 -21.000000 102.000000
-26.000000 -12.000000 95.000000
26.000000 -12.000000 95.000000
35.000000 -21.000000 102.000000
-20.000000 -7.000000 83.000000
20.000000 -7.000000 83.000000
-18.000000 -31.000000 95.000000
-10.000000 -31.000000 84.000000
18.000000 -31.000000 95.000000
-31.000000 -31.000000 102.000000
31.000000 -31.000000 102.000000
-35.000000 -42.000000 102.000000
-26.000000 -50.000000 95.000000
26.000000 -50.000000 95.000000
35.000000 -42.000000 102.000000
-20.000000 -56.000000 83.000000
10.000000 -31.000000 84.000000
-45.000000 -58.000000 92.000000
-45.000000 -66.000000 79.000000
45.000000 -58.000000 92.000000
20.000000 -56.000000 83.000000
-45.000000 -46.000000 100.000000
45.000000 -46.000000 100.000000
-56.000000 -42.000000 98.000000
-64.000000 -50.000000 88.000000
56.000000 -42.000000 98.000000
-70.000000 -56.000000 74.000000
64.000000 -50.000000 88.000000
45.000000 -66.000000 79.000000
-80.000000 -31.000000 72.000000
70.000000 -56.000000 74.000000
-57.000000 -43.000000 100.000000
-61.000000 -31.000000 99.000000
61.000000 -31.000000 99.000000
-45.000000 -48.000000 103.000000
57.000000 -43.000000 100.000000
-34.000000 -43.000000 105.000000
45.000000 -48.000000 103.000000
-29.000000 -31.000000 105.000000
34.000000 -43.000000 105.000000
-34.000000 -20.000000 105.000000
34.000000 -20.000000 105.000000
-45.000000 -15.000000 103.000000
45.000000 -15.000000 103.000000
-57.000000 -20.000000 100.000000
57.000000 -20.000000 100.000000
-45.000000 -31.000000 106.000000
45.000000 -31.000000 106.000000
29.000000 -31.000000 105.000000
-21.000000 119.000000 81.000000
0.000000 121.000000 82.000000
0.000000 126.000000 74.000000
21.000000 119.000000 81.000000
23.000000 124.000000 71.000000
-30.000000 117.000000 81.000000
-23.000000 124.000000 71.000000
30.000000 117.000000 81.000000
42.000000 121.000000 67.000000
-47.000000 114.000000 68.000000
-34.000000 105.000000 85.000000
34.000000 105.000000 85.000000
47.000000 114.000000 68.000000
-45.000000 89.000000 73.000000
-32.000000 90.000000 88.000000
32.000000 90.000000 88.000000
45.000000 89.000000 73.000000
-40.000000 56.000000 73.000000
-27.000000 57.000000 91.000000
27.000000 57.000000 91.000000
40.000000 56.000000 73.000000
-26.000000 24.000000 72.000000
-56.000000 18.000000 68.000000
-51.000000 6.000000 86.000000
51.000000 6.000000 86.000000
56.000000 18.000000 68.000000
26.000000 24.000000 72.000000
-81.000000 5.000000 69.000000
-79.000000 -7.000000 80.000000
81.000000 5.000000 69.000000
-106.000000 -19.000000 57.000000
-93.000000 -26.000000 77.000000
93.000000 -26.000000 77.000000
106.000000 -19.000000 57.000000
-110.000000 -55.000000 76.000000
-95.000000 -48.000000 84.000000
110.000000 -55.000000 76.000000
-91.000000 -62.000000 80.000000
-88.000000 -53.000000 93.000000
91.000000 -62.000000 80.000000
95.000000 -48.000000 84.000000
-63.000000 -77.000000 88.000000
-56.000000 -70.000000 102.000000
63.000000 -77.000000 88.000000
88.000000 -53.000000 93.000000
-41.000000 -97.000000 94.000000
-40.000000 -82.000000 107.000000
40.000000 -82.000000 107.000000
41.000000 -97.000000 94.000000
-20.000000 -92.000000 97.000000
-26.000000 -79.000000 109.000000
20.000000 -92.000000 97.000000
-8.000000 -63.000000 96.000000
-13.000000 -55.000000 108.000000
8.000000 -63.000000 96.000000
26.000000 -79.000000 109.000000
0.000000 -55.000000 95.000000
0.000000 -45.000000 105.000000
13.000000 -55.000000 108.000000
-32.000000 -60.000000 97.000000
32.000000 -60.000000 97.000000
21.000000 -53.000000 99.000000
-42.000000 -61.000000 95.000000
42.000000 -61.000000 95.000000
56.000000 -70.000000 102.000000
55.000000 -56.000000 92.000000
-55.000000 -56.000000 92.000000
77.000000 -48.000000 85.000000
-77.000000 -48.000000 85.000000
82.000000 -38.000000 83.000000
-82.000000 -38.000000 83.000000
80.000000 -24.000000 83.000000
-80.000000 -24.000000 83.000000
79.000000 -7.000000 80.000000
63.000000 -8.000000 86.000000
-63.000000 -8.000000 86.000000
48.000000 -2.000000 90.000000
-26.000000 -12.000000 95.000000
-16.000000 13.000000 104.000000
16.000000 13.000000 104.000000
26.000000 -12.000000 95.000000
-21.000000 -18.000000 96.000000
0.000000 -6.000000 93.000000
21.000000 -18.000000 96.000000
-16.000000 -39.000000 98.000000
16.000000 -39.000000 98.000000
0.000000 -27.000000 98.000000
-17.000000 -27.000000 97.000000
-8.000000 113.000000 89.000000
0.000000 114.000000 88.000000
8.000000 113.000000 89.000000
-15.000000 107.000000 91.000000
15.000000 107.000000 91.000000
14.000000 92.000000 94.000000
-10.000000 57.000000 96.000000
-15.000000 88.000000 94.000000
15.000000 88.000000 94.000000
10.000000 57.000000 96.000000
-14.000000 92.000000 94.000000
0.000000 42.000000 95.000000
0.000000 57.000000 96.000000
11.000000 37.000000 95.000000
0.000000 87.000000 94.000000
0.000000 98.000000 94.000000
-16.000000 29.000000 96.000000
-17.000000 29.000000 102.000000
-12.000000 35.000000 100.000000
12.000000 35.000000 100.000000
17.000000 29.000000 102.000000
16.000000 29.000000 96.000000
-14.000000 17.000000 100.000000
14.000000 17.000000 100.000000
13.000000 19.000000 95.000000
-5.000000 16.000000 100.000000
-13.000000 19.000000 95.000000
5.000000 16.000000 100.000000
0.000000 18.000000 95.000000
0.000000 24.000000 102.000000
0.000000 25.000000 96.000000
-11.000000 37.000000 95.000000
0.000000 41.000000 100.000000
-10.000000 32.000000 103.000000
0.000000 37.000000 103.000000
0.000000 26.000000 106.000000
-6.000000 19.000000 104.000000
6.000000 19.000000 104.000000
-12.000000 20.000000 104.000000
12.000000 20.000000 104.000000
-14.000000 29.000000 106.000000
10.000000 32.000000 103.000000
14.000000 29.000000 106.000000
-21.000000 31.000000 91.000000
21.000000 31.000000 91.000000
-23.000000 40.000000 91.000000
23.000000 40.000000 91.000000
-33.000000 40.000000 71.000000
33.000000 40.000000 71.000000
-30.000000 32.000000 71.000000
30.000000 32.000000 71.000000
0.000000 99.000000 92.000000
-12.000000 95.000000 93.000000
12.000000 95.000000 93.000000
-12.000000 105.000000 91.000000
12.000000 105.000000 91.000000
-6.000000 111.000000 88.000000
6.000000 111.000000 88.000000
-6.000000 109.000000 81.000000
0.000000 110.000000 81.000000
0.000000 112.000000 88.000000
-12.000000 104.000000 82.000000
12.000000 104.000000 82.000000
-12.000000 96.000000 85.000000
12.000000 96.000000 85.000000
0.000000 100.000000 84.000000
6.000000 109.000000 81.000000
-24.000000 -20.000000 99.000000
24.000000 -20.000000 99.000000
17.000000 -27.000000 97.000000
-22.000000 -28.000000 100.000000
22.000000 -28.000000 100.000000
-23.000000 -38.000000 100.000000
-27.000000 -48.000000 100.000000
27.000000 -48.000000 100.000000
-29.000000 -14.000000 100.000000
-48.000000 -2.000000 90.000000
-48.000000 -8.000000 95.000000
48.000000 -8.000000 95.000000
-61.000000 -13.000000 92.000000
61.000000 -13.000000 92.000000
-74.000000 -25.000000 87.000000
74.000000 -25.000000 87.000000
-75.000000 -37.000000 88.000000
75.000000 -37.000000 88.000000
-72.000000 -45.000000 89.000000
-54.000000 -51.000000 99.000000
72.000000 -45.000000 89.000000
-43.000000 -55.000000 97.000000
43.000000 -55.000000 97.000000
-35.000000 -54.000000 99.000000
35.000000 -54.000000 99.000000
-21.000000 -53.000000 99.000000
-30.000000 -46.000000 97.000000
30.000000 -46.000000 97.000000
-36.000000 -51.000000 98.000000
36.000000 -51.000000 98.000000
-43.000000 -52.000000 96.000000
-53.000000 -50.000000 96.000000
54.000000 -51.000000 99.000000
53.000000 -50.000000 96.000000
-68.000000 -43.000000 87.000000
68.000000 -43.000000 87.000000
-71.000000 -36.000000 86.000000
-70.000000 -27.000000 86.000000
70.000000 -27.000000 86.000000
-59.000000 -15.000000 90.000000
-48.000000 -11.000000 93.000000
48.000000 -11.000000 93.000000
-31.000000 -16.000000 97.000000
29.000000 -14.000000 100.000000
31.000000 -16.000000 97.000000
-25.000000 -38.000000 97.000000
25.000000 -38.000000 97.000000
23.000000 -38.000000 100.000000
-25.000000 -29.000000 96.000000
25.000000 -29.000000 96.000000
-26.000000 -22.000000 96.000000
26.000000 -22.000000 96.000000
-14.000000 -59.000000 78.000000
14.000000 -59.000000 78.000000
-25.000000 -85.000000 79.000000
25.000000 -85.000000 79.000000
-43.000000 -88.000000 76.000000
-62.000000 -71.000000 71.000000
43.000000 -88.000000 76.000000
-87.000000 -58.000000 63.000000
62.000000 -71.000000 71.000000
-102.000000 -52.000000 59.000000
102.000000 -52.000000 59.000000
-99.000000 -21.000000 48.000000
-77.000000 0.000000 53.000000
77.000000 0.000000 53.000000
-56.000000 12.000000 60.000000
56.000000 12.000000 60.000000
0.000000 62.000000 36.000000
-23.000000 53.000000 33.000000
-16.000000 69.000000 46.000000
0.000000 73.000000 41.000000
16.000000 69.000000 46.000000
-18.000000 97.000000 47.000000
0.000000 103.000000 44.000000
18.000000 97.000000 47.000000
-21.000000 121.000000 56.000000
0.000000 125.000000 59.000000
21.000000 121.000000 56.000000
-42.000000 121.000000 67.000000
-42.000000 117.000000 51.000000
42.000000 117.000000 51.000000
-37.000000 91.000000 49.000000
37.000000 91.000000 49.000000
-32.000000 64.000000 50.000000
32.000000 64.000000 50.000000
30.000000 45.000000 52.000000
23.000000 53.000000 33.000000
-28.000000 36.000000 55.000000
-27.000000 29.000000 60.000000
28.000000 36.000000 55.000000
-30.000000 45.000000 52.000000
-26.000000 22.000000 64.000000
26.000000 22.000000 64.000000
-43.000000 -7.000000 -85.000000
-44.000000 19.000000 -69.000000
0.000000 25.000000 -86.000000
43.000000 -7.000000 -85.000000
0.000000 -9.000000 -106.000000
-38.000000 40.000000 -34.000000
0.000000 49.000000 -45.000000
44.000000 19.000000 -69.000000
-27.000000 50.000000 21.000000
27.000000 50.000000 21.000000
38.000000 40.000000 -34.000000
0.000000 59.000000 24.000000
-94.000000 6.000000 9.000000
94.000000 6.000000 9.000000
99.000000 -21.000000 48.000000
-59.000000 -56.000000 -90.000000
59.000000 -56.000000 -90.000000
0.000000 -72.000000 -109.000000
-58.000000 -109.000000 30.000000
-58.000000 -119.000000 -9.000000
0.000000 -126.000000 -10.000000
58.000000 -109.000000 30.000000
0.000000 -115.000000 37.000000
-58.000000 -111.000000 -49.000000
58.000000 -111.000000 -49.000000
58.000000 -119.000000 -9.000000
0.000000 -115.000000 -70.000000
-93.000000 -52.000000 43.000000
93.000000 -52.000000 43.000000
87.000000 -58.000000 63.000000
-81.000000 -58.000000 36.000000
-102.000000 -72.000000 16.000000
102.000000 -72.000000 16.000000
81.000000 -58.000000 36.000000
-82.000000 -90.000000 7.000000
-102.000000 -79.000000 -15.000000
102.000000 -79.000000 -15.000000
82.000000 -90.000000 7.000000
-82.000000 -96.000000 -25.000000
-102.000000 -69.000000 -46.000000
102.000000 -69.000000 -46.000000
82.000000 -96.000000 -25.000000
-79.000000 -42.000000 -75.000000
-82.000000 -87.000000 -57.000000
79.000000 -42.000000 -75.000000
99.000000 -34.000000 -56.000000
82.000000 -87.000000 -57.000000
-59.000000 -67.000000 55.000000
59.000000 -67.000000 55.000000
0.000000 -73.000000 73.000000
0.000000 -52.000000 77.000000
-109.000000 -30.000000 7.000000
-110.000000 -41.000000 -6.000000
110.000000 -41.000000 -6.000000
109.000000 -30.000000 7.000000
-105.000000 -42.000000 -26.000000
105.000000 -42.000000 -26.000000
-55.000000 25.000000 -27.000000
-52.000000 22.000000 19.000000
52.000000 22.000000 19.000000
-76.000000 16.000000 -21.000000
76.000000 16.000000 -21.000000
27.000000 29.000000 60.000000
-82.000000 1.000000 -55.000000
-62.000000 -3.000000 -70.000000
82.000000 1.000000 -55.000000
55.000000 25.000000 -27.000000
62.000000 -3.000000 -70.000000
-114.000000 -52.000000 -30.000000
-118.000000 -46.000000 -28.000000
-130.000000 -53.000000 -37.000000
114.000000 -52.000000 -30.000000
131.000000 -61.000000 -40.000000
130.000000 -53.000000 -37.000000
-131.000000 -61.000000 -40.000000
-152.000000 -56.000000 -50.000000
152.000000 -56.000000 -50.000000
-162.000000 -37.000000 -52.000000
-173.000000 -41.000000 -54.000000
158.000000 -65.000000 -54.000000
173.000000 -41.000000 -54.000000
-155.000000 -10.000000 -52.000000
-164.000000 -7.000000 -55.000000
162.000000 -37.000000 -52.000000
164.000000 -7.000000 -55.000000
-132.000000 5.000000 -39.000000
-133.000000 13.000000 -42.000000
155.000000 -10.000000 -52.000000
133.000000 13.000000 -42.000000
-106.000000 9.000000 -17.000000
106.000000 9.000000 -17.000000
132.000000 5.000000 -39.000000
-133.000000 0.000000 -47.000000
-113.000000 3.000000 -27.000000
113.000000 3.000000 -27.000000
133.000000 0.000000 -47.000000
-152.000000 -12.000000 -57.000000
152.000000 -12.000000 -57.000000
-158.000000 -32.000000 -57.000000
158.000000 -32.000000 -57.000000
-150.000000 -46.000000 -56.000000
150.000000 -46.000000 -56.000000
-131.000000 -44.000000 -46.000000
131.000000 -44.000000 -46.000000
-121.000000 -39.000000 -37.000000
121.000000 -39.000000 -37.000000
118.000000 -46.000000 -28.000000
-92.000000 3.000000 -22.000000
-93.000000 0.000000 -9.000000
93.000000 0.000000 -9.000000
-99.000000 18.000000 -16.000000
99.000000 18.000000 -16.000000
92.000000 3.000000 -22.000000
-108.000000 -37.000000 -27.000000
108.000000 -37.000000 -27.000000
-104.000000 2.000000 -35.000000
104.000000 2.000000 -35.000000
-92.000000 -5.000000 -24.000000
92.000000 -5.000000 -24.000000
108.000000 -2.000000 -35.000000
-97.000000 -12.000000 -35.000000
-108.000000 -2.000000 -35.000000
97.000000 -12.000000 -35.000000
-102.000000 -26.000000 -27.000000
102.000000 -26.000000 -27.000000
107.000000 -22.000000 -35.000000
-107.000000 -22.000000 -35.000000
-114.000000 -31.000000 -34.000000
114.000000 -31.000000 -34.000000
-114.000000 -30.000000 -41.000000
114.000000 -30.000000 -41.000000
-108.000000 -22.000000 -41.000000
-98.000000 -12.000000 -41.000000
98.000000 -12.000000 -41.000000
-105.000000 -11.000000 -35.000000
-106.000000 -10.000000 -41.000000
105.000000 -11.000000 -35.000000
-109.000000 -2.000000 -41.000000
106.000000 -10.000000 -41.000000
-104.000000 2.000000 -41.000000
104.000000 2.000000 -41.000000
-113.000000 2.000000 -34.000000
113.000000 2.000000 -34.000000
-122.000000 -37.000000 -44.000000
122.000000 -37.000000 -44.000000
-133.000000 -42.000000 -53.000000
133.000000 -42.000000 -53.000000
-152.000000 -44.000000 -62.000000
152.000000 -44.000000 -62.000000
-161.000000 -31.000000 -63.000000
-155.000000 -11.000000 -62.000000
155.000000 -11.000000 -62.000000
-134.000000 0.000000 -54.000000
134.000000 0.000000 -54.000000
-120.000000 -8.000000 -43.000000
-114.000000 -14.000000 -42.000000
109.000000 -2.000000 -41.000000
114.000000 -14.000000 -42.000000
-128.000000 -16.000000 -47.000000
-123.000000 -22.000000 -45.000000
120.000000 -8.000000 -43.000000
123.000000 -22.000000 -45.000000
-135.000000 -24.000000 -49.000000
135.000000 -24.000000 -49.000000
128.000000 -16.000000 -47.000000
-142.000000 -27.000000 -50.000000
-139.000000 -35.000000 -50.000000
130.000000 -30.000000 -48.000000
139.000000 -35.000000 -50.000000
-130.000000 -30.000000 -48.000000
108.000000 -22.000000 -41.000000
142.000000 -27.000000 -50.000000
161.000000 -31.000000 -63.000000
-101.000000 16.000000 -42.000000
101.000000 16.000000 -42.000000
-133.000000 11.000000 -63.000000
133.000000 11.000000 -63.000000
-168.000000 -7.000000 -68.000000
-175.000000 -38.000000 -64.000000
175.000000 -38.000000 -64.000000
-160.000000 -60.000000 -70.000000
160.000000 -60.000000 -70.000000
-158.000000 -65.000000 -54.000000
-131.000000 -56.000000 -62.000000
131.000000 -56.000000 -62.000000
-110.000000 -49.000000 -49.000000
110.000000 -49.000000 -49.000000
168.000000 -7.000000 -68.000000
-99.000000 -34.000000 -56.000000
80.000000 -31.000000 72.000000
43.000000 -52.000000 96.000000
71.000000 -36.000000 86.000000
59.000000 -15.000000 90.000000
3 0 1 2
3 3 4 5
3 6 2 7
3 8 3 9
3 2 10 11
3 12 13 3
3 1 14 10
3 13 15 4
3 14 16 17
3 18 19 15
3 10 17 20
3 21 18 13
3 22 23 20
3 24 18 21
3 25 22 17
3 26 19 18
3 25 27 28
3 29 30 26
3 28 31 23
3 29 24 32
3 33 34 31
3 35 29 36
3 37 33 28
3 38 30 29
3 39 40 33
3 41 38 35
3 40 42 34
3 43 35 44
3 6 45 42
3 9 43 46
3 0 6 40
3 5 41 43
3 39 47 48
3 41 5 49
3 37 50 47
3 38 41 51
3 27 52 50
3 30 38 53
3 25 54 52
3 26 30 55
3 25 16 56
3 57 19 26
3 16 14 58
3 59 15 19
3 14 1 60
3 61 4 15
3 1 0 48
3 49 5 4
3 62 60 48
3 49 61 63
3 58 60 62
3 63 61 59
3 62 56 58
3 59 57 63
3 62 54 56
3 57 64 63
3 62 52 54
3 64 55 63
3 62 50 52
3 55 53 63
3 62 47 50
3 53 51 63
3 62 48 47
3 51 49 63
3 65 66 67
3 68 69 67
3 70 65 71
3 72 73 69
3 74 75 70
3 72 76 77
3 78 79 75
3 76 80 81
3 82 83 79
3 80 84 85
3 86 87 88
3 89 90 91
3 92 93 88
3 94 90 89
3 92 95 96
3 97 98 94
3 99 100 96
3 101 98 97
3 102 103 100
3 104 101 105
3 106 107 103
3 108 104 109
3 106 110 111
3 112 113 108
3 114 115 111
3 116 113 112
3 117 118 115
3 119 116 120
3 121 122 118
3 121 119 123
3 124 115 118
3 125 126 123
3 124 127 111
3 112 128 125
3 107 111 127
3 129 130 128
3 103 107 131
3 109 132 130
3 100 103 133
3 105 134 132
3 96 100 135
3 97 136 134
3 93 96 137
3 138 139 136
3 88 93 140
3 89 141 139
3 142 143 88
3 89 144 145
3 142 146 147
3 147 148 145
3 118 122 149
3 123 126 150
3 149 122 151
3 151 122 150
3 146 152 151
3 148 147 151
3 153 154 66
3 66 154 155
3 156 153 65
3 68 155 157
3 156 70 75
3 157 158 76
3 83 159 160
3 161 162 84
3 163 75 79
3 80 76 158
3 164 165 159
3 164 166 162
3 159 165 167
3 162 161 167
3 163 160 167
3 158 168 167
3 169 170 171
3 172 173 174
3 175 170 169
3 176 177 174
3 178 175 179
3 180 181 177
3 182 178 181
3 182 183 181
3 184 171 185
3 166 164 185
3 171 186 187
3 172 185 187
3 182 188 189
3 190 188 182
3 178 189 191
3 192 190 180
3 191 193 170
3 192 176 173
3 170 193 186
3 194 195 173
3 193 191 189
3 195 188 190
3 188 187 186
3 194 187 188
3 181 179 143
3 144 177 181
3 179 169 196
3 197 174 177
3 184 198 196
3 166 174 197
3 159 83 198
3 162 166 199
3 200 198 83
3 201 85 84
3 202 196 198
3 203 201 199
3 86 143 196
3 197 144 91
3 168 204 205
3 168 158 206
3 156 163 205
3 206 158 157
3 153 156 207
3 208 157 155
3 154 153 209
3 210 155 154
3 209 211 212
3 210 213 212
3 209 207 214
3 215 208 210
3 207 205 216
3 217 206 208
3 204 218 216
3 204 206 217
3 218 212 211
3 219 212 218
3 216 211 214
3 215 219 217
3 152 146 220
3 221 148 222
3 149 152 223
3 224 222 150
3 149 225 226
3 150 126 227
3 142 228 220
3 145 148 221
3 142 229 230
3 231 141 145
3 229 140 232
3 233 139 141
3 140 137 234
3 235 136 139
3 137 135 236
3 237 134 136
3 133 238 236
3 132 134 237
3 131 239 238
3 130 132 240
3 131 127 241
3 242 128 130
3 127 124 243
3 244 125 128
3 124 245 226
3 227 126 125
3 243 226 246
3 247 227 244
3 241 243 248
3 249 244 242
3 241 250 251
3 242 252 253
3 239 251 254
3 252 240 255
3 236 238 254
3 255 240 237
3 236 256 257
3 237 235 258
3 232 234 257
3 258 235 233
3 232 259 260
3 233 231 261
3 230 260 262
3 231 263 264
3 220 228 262
3 264 263 221
3 226 225 265
3 266 267 227
3 225 223 268
3 269 224 267
3 223 220 270
3 271 221 224
3 121 117 272
3 273 119 121
3 117 114 274
3 275 116 119
3 110 276 274
3 113 116 275
3 106 277 276
3 108 113 278
3 102 279 277
3 104 108 280
3 102 99 281
3 282 101 104
3 95 283 281
3 98 101 282
3 95 92 284
3 285 94 98
3 92 87 286
3 287 90 94
3 288 289 290
3 288 291 292
3 291 290 293
3 291 294 295
3 294 293 296
3 294 297 298
3 71 67 297
3 297 67 69
3 299 71 296
3 298 69 73
3 74 299 300
3 301 73 77
3 78 74 302
3 303 77 81
3 302 293 290
3 292 295 303
3 300 296 293
3 301 303 295
3 304 290 289
3 305 306 307
3 82 78 304
3 305 81 85
3 308 309 202
3 310 201 203
3 311 308 200
3 306 85 201
3 202 309 312
3 203 91 313
3 312 286 87
3 313 91 90
3 314 315 316
3 317 318 316
3 315 319 320
3 321 316 320
3 320 319 322
3 323 324 320
3 325 322 289
3 307 323 325
3 289 322 308
3 307 306 310
3 283 284 326
3 327 285 328
3 329 314 318
3 330 331 318
3 332 333 334
3 335 336 334
3 334 333 337
3 338 339 334
3 340 337 329
3 330 338 340
3 279 281 341
3 342 282 343
3 344 341 345
3 346 342 347
3 348 345 349
3 350 346 351
3 352 349 353
3 354 350 355
3 356 357 353
3 358 359 354
3 329 337 357
3 360 338 330
3 337 333 352
3 355 339 338
3 333 332 348
3 351 335 339
3 332 361 344
3 347 362 335
3 279 344 361
3 343 280 362
3 361 332 336
3 362 363 336
3 274 276 277
3 275 273 280
3 272 277 361
3 362 280 273
3 364 272 363
3 363 273 364
3 283 365 341
3 328 282 342
3 365 366 345
3 346 367 368
3 366 369 349
3 350 370 367
3 353 349 369
3 354 359 370
3 319 371 372
3 324 323 373
3 372 371 374
3 373 327 375
3 284 286 372
3 373 287 285
3 286 309 308
3 310 376 287
3 308 322 372
3 373 323 310
3 286 312 309
3 376 313 287
3 377 378 356
3 379 359 358
3 356 378 314
3 358 330 317
3 371 378 377
3 380 375 379
3 315 378 371
3 321 324 380
3 314 378 315
3 321 381 317
3 382 383 384
3 385 386 387
3 388 384 389
3 390 387 386
3 389 391 392
3 390 393 394
3 391 395 396
3 397 394 398
3 395 399 400
3 401 398 402
3 400 399 403
3 404 405 402
3 399 406 407
3 408 409 405
3 395 410 406
3 409 411 401
3 412 410 395
3 413 397 401
3 414 412 391
3 415 390 397
3 416 414 389
3 417 387 390
3 384 383 418
3 419 420 387
3 374 421 422
3 375 327 423
3 424 403 421
3 425 375 426
3 365 326 422
3 423 327 368
3 369 427 383
3 420 428 370
3 403 407 429
3 430 408 404
3 431 421 429
3 432 433 430
3 434 431 435
3 433 432 436
3 437 431 434
3 438 439 436
3 437 440 441
3 438 428 442
3 427 441 418
3 428 420 419
3 437 427 369
3 438 367 370
3 422 431 437
3 423 367 438
3 422 421 431
3 432 426 423
3 418 441 443
3 444 442 419
3 440 445 443
3 439 442 444
3 440 434 446
3 447 436 439
3 448 449 446
3 450 436 447
3 435 451 449
3 433 450 452
3 435 429 453
3 454 430 433
3 429 407 455
3 456 408 430
3 416 418 457
3 458 419 417
3 414 416 459
3 460 417 415
3 412 414 461
3 462 415 413
3 412 463 464
3 413 411 465
3 410 464 466
3 411 409 467
3 406 466 455
3 409 408 456
3 451 468 469
3 470 452 471
3 468 472 473
3 474 471 475
3 473 472 476
3 477 478 475
3 476 479 480
3 477 481 482
3 459 457 483
3 481 458 460
3 473 483 457
3 475 444 458
3 445 469 473
3 484 444 475
3 449 469 445
3 484 471 452
3 455 468 451
3 456 454 470
3 466 472 468
3 474 478 467
3 476 472 466
3 477 465 467
3 479 476 464
3 485 486 465
3 461 480 479
3 485 482 462
3 459 480 461
3 462 482 460
3 400 424 487
3 488 425 402
3 396 400 489
3 490 402 398
3 396 491 492
3 398 394 493
3 392 492 494
3 394 393 495
3 496 494 497
3 393 386 498
3 388 497 499
3 386 385 500
3 489 487 499
3 490 498 500
3 497 494 491
3 501 495 498
3 494 492 491
3 501 493 495
3 369 382 499
3 370 359 500
3 502 499 487
3 488 500 359
3 374 377 487
3 488 379 375
3 6 0 2
3 9 3 5
3 45 6 7
3 503 8 9
3 7 2 11
3 8 12 3
3 2 1 10
3 3 13 4
3 10 14 17
3 13 18 15
3 11 10 20
3 12 21 13
3 17 22 20
3 32 24 21
3 16 25 17
3 24 26 18
3 22 25 28
3 24 29 26
3 22 28 23
3 36 29 32
3 28 33 31
3 44 35 36
3 27 37 28
3 35 38 29
3 37 39 33
3 43 41 35
3 33 40 34
3 46 43 44
3 40 6 42
3 503 9 46
3 39 0 40
3 9 5 43
3 0 39 48
3 51 41 49
3 39 37 47
3 53 38 51
3 37 27 50
3 55 30 53
3 27 25 52
3 64 26 55
3 54 25 56
3 64 57 26
3 56 16 58
3 57 59 19
3 58 14 60
3 59 61 15
3 60 1 48
3 61 49 4
3 71 65 67
3 66 68 67
3 299 70 71
3 68 72 69
3 299 74 70
3 73 72 77
3 74 78 75
3 77 76 81
3 78 82 79
3 81 80 85
3 143 86 88
3 144 89 91
3 87 92 88
3 138 94 89
3 93 92 96
3 138 97 94
3 95 99 96
3 105 101 97
3 99 102 100
3 109 104 105
3 102 106 103
3 129 108 109
3 107 106 111
3 129 112 108
3 110 114 111
3 120 116 112
3 114 117 115
3 123 119 120
3 117 121 118
3 122 121 123
3 245 124 118
3 120 125 123
3 115 124 111
3 120 112 125
3 131 107 127
3 112 129 128
3 133 103 131
3 129 109 130
3 135 100 133
3 109 105 132
3 137 96 135
3 105 97 134
3 140 93 137
3 97 138 136
3 229 88 140
3 138 89 139
3 229 142 88
3 141 89 145
3 143 142 147
3 144 147 145
3 245 118 149
3 122 123 150
3 152 149 151
3 222 151 150
3 147 146 151
3 222 148 151
3 65 153 66
3 68 66 155
3 70 156 65
3 72 68 157
3 163 156 75
3 72 157 76
3 79 83 160
3 80 161 84
3 160 163 79
3 161 80 158
3 184 164 159
3 165 164 162
3 160 159 167
3 165 162 167
3 168 163 167
3 161 158 167
3 184 169 171
3 166 172 174
3 179 175 169
3 173 176 174
3 181 178 179
3 176 180 177
3 183 182 181
3 180 182 181
3 164 184 185
3 172 166 185
3 185 171 187
3 194 172 187
3 178 182 189
3 180 190 182
3 175 178 191
3 176 192 180
3 175 191 170
3 195 192 173
3 171 170 186
3 172 194 173
3 188 193 189
3 192 195 190
3 193 188 186
3 195 194 188
3 147 181 143
3 147 144 181
3 143 179 196
3 144 197 177
3 169 184 196
3 199 166 197
3 184 159 198
3 84 162 199
3 82 200 83
3 199 201 84
3 200 202 198
3 197 203 199
3 202 86 196
3 203 197 91
3 163 168 205
3 204 168 206
3 207 156 205
3 208 206 157
3 209 153 207
3 210 208 155
3 213 154 209
3 213 210 154
3 213 209 212
3 219 210 212
3 211 209 214
3 219 215 210
3 214 207 216
3 215 217 208
3 205 204 216
3 218 204 217
3 216 218 211
3 217 219 218
3 223 152 220
3 224 221 222
3 225 149 223
3 267 224 150
3 245 149 226
3 267 150 227
3 146 142 220
3 263 145 221
3 228 142 230
3 263 231 145
3 230 229 232
3 231 233 141
3 232 140 234
3 233 235 139
3 234 137 236
3 235 237 136
3 135 133 236
3 240 132 237
3 133 131 238
3 252 130 240
3 239 131 241
3 252 242 130
3 241 127 243
3 242 244 128
3 243 124 226
3 244 227 125
3 248 243 246
3 249 247 244
3 250 241 248
3 504 249 242
3 239 241 251
3 504 242 253
3 238 239 254
3 253 252 255
3 256 236 254
3 505 255 237
3 234 236 257
3 505 237 258
3 259 232 257
3 506 258 233
3 230 232 260
3 506 233 261
3 228 230 262
3 261 231 264
3 270 220 262
3 271 264 221
3 246 226 265
3 247 266 227
3 265 225 268
3 266 269 267
3 268 223 270
3 269 271 224
3 364 121 272
3 364 273 121
3 272 117 274
3 273 275 119
3 114 110 274
3 278 113 275
3 110 106 276
3 280 108 278
3 106 102 277
3 343 104 280
3 279 102 281
3 343 282 104
3 99 95 281
3 328 98 282
3 283 95 284
3 328 285 98
3 284 92 286
3 285 287 94
3 291 288 290
3 307 288 292
3 294 291 293
3 292 291 295
3 297 294 296
3 295 294 298
3 296 71 297
3 298 297 69
3 300 299 296
3 301 298 73
3 302 74 300
3 303 301 77
3 304 78 302
3 305 303 81
3 304 302 290
3 305 292 303
3 302 300 293
3 298 301 295
3 311 304 289
3 292 305 307
3 311 82 304
3 306 305 85
3 200 308 202
3 376 310 203
3 82 311 200
3 310 306 201
3 86 202 312
3 376 203 313
3 86 312 87
3 287 313 90
3 318 314 316
3 321 317 316
3 316 315 320
3 324 321 320
3 325 320 322
3 325 323 320
3 288 325 289
3 288 307 325
3 311 289 308
3 323 307 310
3 365 283 326
3 368 327 328
3 331 329 318
3 317 330 318
3 336 332 334
3 339 335 334
3 340 334 337
3 340 338 334
3 331 340 329
3 331 330 340
3 344 279 341
3 347 342 343
3 348 344 345
3 351 346 347
3 352 348 349
3 355 350 351
3 357 352 353
3 360 354 355
3 502 356 353
3 360 358 354
3 356 329 357
3 358 360 330
3 357 337 352
3 360 355 338
3 352 333 348
3 355 351 339
3 348 332 344
3 351 347 335
3 277 279 361
3 347 343 362
3 363 361 336
3 335 362 336
3 272 274 277
3 278 275 280
3 363 272 361
3 363 362 273
3 281 283 341
3 368 328 342
3 341 365 345
3 342 346 368
3 345 366 349
3 346 350 367
3 502 353 369
3 350 354 370
3 322 319 372
3 380 324 373
3 326 372 374
3 380 373 375
3 326 284 372
3 327 373 285
3 372 286 308
3 373 310 287
3 502 377 356
3 381 379 358
3 329 356 314
3 381 358 317
3 374 371 377
3 381 380 379
3 319 315 371
3 381 321 380
3 388 382 384
3 420 385 387
3 496 388 389
3 393 390 386
3 496 389 392
3 397 390 394
3 392 391 396
3 401 397 398
3 396 395 400
3 405 401 402
3 424 400 403
3 425 404 402
3 403 399 407
3 404 408 405
3 399 395 406
3 405 409 401
3 391 412 395
3 411 413 401
3 389 414 391
3 413 415 397
3 384 416 389
3 415 417 390
3 416 384 418
3 417 419 387
3 326 374 422
3 426 375 423
3 374 424 421
3 404 425 426
3 366 365 422
3 367 423 368
3 382 369 383
3 385 420 370
3 421 403 429
3 426 430 404
3 435 431 429
3 426 432 430
3 448 434 435
3 450 433 436
3 440 437 434
3 432 438 436
3 427 437 441
3 439 438 442
3 383 427 418
3 442 428 419
3 366 437 369
3 428 438 370
3 366 422 437
3 432 423 438
3 457 418 443
3 458 444 419
3 441 440 443
3 484 439 444
3 445 440 446
3 484 447 439
3 434 448 446
3 452 450 447
3 448 435 449
3 470 433 452
3 451 435 453
3 470 454 433
3 453 429 455
3 454 456 430
3 459 416 457
3 460 458 417
3 461 414 459
3 462 460 415
3 463 412 461
3 486 462 413
3 410 412 464
3 486 413 465
3 406 410 466
3 465 411 467
3 407 406 455
3 467 409 456
3 449 451 469
3 474 470 471
3 469 468 473
3 478 474 475
3 483 473 476
3 481 477 475
3 483 476 480
3 485 477 482
3 480 459 483
3 482 481 460
3 443 473 457
3 481 475 458
3 443 445 473
3 471 484 475
3 446 449 445
3 447 484 452
3 453 455 451
3 474 456 470
3 455 466 468
3 456 474 467
3 464 476 466
3 478 477 467
3 463 479 464
3 477 485 465
3 463 461 479
3 486 485 462
3 489 400 487
3 490 488 402
3 491 396 489
3 501 490 398
3 392 396 492
3 501 398 493
3 496 392 494
3 493 394 495
3 388 496 497
3 495 393 498
3 382 388 499
3 498 386 500
3 497 489 499
3 488 490 500
3 489 497 491
3 490 501 498
3 502 369 499
3 385 370 500
3 377 502 487
3 379 488 359
3 424 374 487
3 425 488 375
