ply
format ascii 1.0
comment Created by Blender 2.73 (sub 0) - www.blender.org, source file: ''
element vertex 829
property float x
property float y
property float z
element face 1560
property list uchar uint vertex_indices
end_header
-43.477348 -126.996033 124.209763
-1.753246 -126.996033 130.780151
-1.753246 -121.351257 134.399994
-42.339626 -129.818420 120.822845
-1.753246 -129.818420 127.214073
-41.493481 -129.818420 118.303932
-1.753246 -129.818420 124.561913
-41.213337 -126.996033 117.469963
-1.753246 -126.996033 123.683846
-41.773621 -121.351257 119.137894
-1.753246 -121.351257 125.439995
-79.426201 -126.996033 105.837761
-44.632217 -121.351257 127.647736
-77.308228 -129.818420 102.951805
-75.733055 -129.818420 100.805466
-75.211548 -126.996033 100.094864
-76.254562 -121.351257 101.516083
-107.591019 -126.996033 77.672951
-81.576096 -121.351257 108.767227
-104.705055 -129.818420 75.554985
-102.558716 -129.818420 73.979813
-101.848114 -126.996033 73.458305
-103.269333 -121.351257 74.501320
-129.400986 -121.351288 42.878975
-125.963013 -126.996063 41.724102
-122.576096 -129.818451 40.586384
-120.057182 -129.818451 39.740234
-119.223221 -126.996094 39.460091
-120.891144 -121.351288 40.020378
-136.153244 -121.351257 0.000001
-132.533401 -126.996033 0.000001
-128.967316 -129.818420 0.000001
-126.315163 -129.818420 0.000001
-125.437096 -126.996033 0.000001
-127.193245 -121.351257 0.000001
122.456505 -126.996033 41.724102
129.026917 -126.996033 0.000001
132.646759 -121.351257 0.000001
119.069595 -129.818420 40.586384
125.460823 -129.818420 0.000001
116.550674 -129.818420 39.740238
122.808662 -129.818420 0.000001
115.716713 -126.996033 39.460091
121.930595 -126.996033 0.000001
117.384644 -121.351257 40.020378
123.686745 -121.351257 0.000001
104.084511 -126.996033 77.672951
125.894478 -121.351257 42.878975
101.198547 -129.818420 75.554985
99.052216 -129.818420 73.979813
98.341606 -126.996033 73.458305
99.762833 -121.351257 74.501320
75.919708 -126.996033 105.837761
107.013977 -121.351257 79.822845
73.801735 -129.818420 102.951805
72.226562 -129.818420 100.805466
71.705055 -126.996033 100.094864
72.748070 -121.351257 101.516083
41.125729 -121.351288 127.647736
39.970856 -126.996063 124.209763
38.833138 -129.818451 120.822845
37.986988 -129.818451 118.303932
37.706844 -126.996094 117.469963
38.267132 -121.351288 119.137894
39.970856 -126.996033 -124.209763
-1.753246 -126.996033 -130.780151
-1.753246 -121.351257 -134.399994
38.833138 -129.818420 -120.822845
-1.753246 -129.818420 -127.214073
37.986992 -129.818420 -118.303932
-1.753246 -129.818420 -124.561913
37.706844 -126.996033 -117.469963
-1.753246 -126.996033 -123.683846
38.267132 -121.351257 -119.137894
-1.753246 -121.351257 -125.439995
75.919708 -126.996033 -105.837761
41.125729 -121.351257 -127.647736
73.801735 -129.818420 -102.951805
72.226562 -129.818420 -100.805466
71.705055 -126.996033 -100.094864
72.748070 -121.351257 -101.516083
104.084511 -126.996033 -77.672951
78.069603 -121.351257 -108.767227
101.198547 -129.818420 -75.554985
99.052216 -129.818420 -73.979813
98.341606 -126.996033 -73.458305
99.762833 -121.351257 -74.501320
125.894478 -121.351288 -42.878971
122.456505 -126.996063 -41.724102
119.069595 -129.818451 -40.586380
116.550674 -129.818451 -39.740231
115.716713 -126.996094 -39.460091
117.384644 -121.351288 -40.020374
-125.963013 -126.996033 -41.724102
-122.576096 -129.818420 -40.586380
-120.057182 -129.818420 -39.740234
-119.223221 -126.996033 -39.460091
-120.891144 -121.351257 -40.020374
-107.591019 -126.996033 -77.672951
-129.400986 -121.351257 -42.878971
-104.705055 -129.818420 -75.554985
-102.558716 -129.818420 -73.979813
-101.848114 -126.996033 -73.458305
-103.269333 -121.351257 -74.501320
-79.426201 -126.996033 -105.837761
-110.520485 -121.351257 -79.822845
-77.308228 -129.818420 -102.951805
-75.733055 -129.818420 -100.805466
-75.211548 -126.996033 -100.094864
-76.254562 -121.351257 -101.516083
-44.632217 -121.351288 -127.647736
-43.477348 -126.996063 -124.209763
-42.339626 -129.818451 -120.822845
-41.493477 -129.818451 -118.303932
-41.213337 -126.996094 -117.469963
-41.773621 -121.351288 -119.137894
-58.124805 -11.895889 167.814240
-1.753246 -11.895889 176.691208
-1.753246 13.048752 179.199997
-55.952267 -38.130753 161.346756
-1.753246 -38.130753 169.881607
-52.750633 -65.333328 151.815720
-1.753246 -65.333328 159.846405
-48.862949 -93.181015 140.242325
-1.753246 -93.181015 147.660812
-106.693695 -11.895889 142.992661
-58.925209 13.048752 170.196991
-102.649330 -38.130753 137.481781
-96.689224 -65.333328 129.360504
-89.451942 -93.181015 119.498947
-146.776215 13.048752 106.430458
-144.745895 -11.895905 104.940437
-139.235016 -38.130768 100.896072
-131.113754 -65.333328 94.935974
-121.252197 -93.181015 87.698692
-110.520485 -121.351257 79.822845
-171.950241 13.048752 57.171967
-169.567490 -11.895889 56.371559
-163.099991 -38.130783 54.199020
-153.568954 -65.333344 50.997395
-141.995560 -93.181015 47.109707
-180.953247 13.048752 0.000001
-178.444458 -11.895889 0.000001
-171.634842 -38.130753 0.000001
-161.599640 -65.333328 0.000001
-149.414047 -93.181015 0.000001
166.061005 -11.895889 56.371567
174.937958 -11.895889 0.000001
177.446747 13.048752 0.000001
159.593506 -38.130753 54.199028
168.128357 -38.130753 0.000001
150.062469 -65.333328 50.997395
158.093155 -65.333328 0.000001
138.489075 -93.181015 47.109707
145.907562 -93.181015 0.000001
141.239426 -11.895889 104.940437
168.443756 13.048752 57.171970
135.728546 -38.130753 100.896072
127.607246 -65.333328 94.935974
117.745697 -93.181015 87.698692
103.187187 -11.895905 142.992661
143.269730 13.048752 106.430458
99.142822 -38.130768 137.481766
93.182716 -65.333328 129.360504
85.945450 -93.181015 119.498947
78.069603 -121.351257 108.767227
55.418720 13.048752 170.196991
54.618313 -11.895889 167.814240
52.445774 -38.130783 161.346756
49.244148 -65.333344 151.815720
45.356461 -93.181015 140.242325
54.618320 -11.895889 -167.814240
-1.753246 -11.895889 -176.691208
-1.753246 13.048752 -179.199997
52.445782 -38.130753 -161.346756
-1.753246 -38.130753 -169.881607
49.244148 -65.333328 -151.815720
-1.753246 -65.333328 -159.846405
45.356461 -93.181015 -140.242325
-1.753246 -93.181015 -147.660812
103.187187 -11.895889 -142.992661
55.418724 13.048752 -170.196991
99.142822 -38.130753 -137.481781
93.182716 -65.333328 -129.360504
85.945450 -93.181015 -119.498947
143.269730 13.048752 -106.430458
141.239410 -11.895905 -104.940437
135.728516 -38.130768 -100.896072
127.607246 -65.333328 -94.935974
117.745697 -93.181015 -87.698692
107.013977 -121.351257 -79.822845
168.443756 13.048752 -57.171959
166.061005 -11.895889 -56.371552
159.593506 -38.130783 -54.199013
150.062469 -65.333344 -50.997387
138.489075 -93.181015 -47.109699
-169.567490 -11.895889 -56.371559
-163.099991 -38.130753 -54.199020
-153.568954 -65.333328 -50.997387
-141.995560 -93.181015 -47.109699
-144.745911 -11.895889 -104.940437
-171.950241 13.048752 -57.171963
-139.235031 -38.130753 -100.896072
-131.113754 -65.333328 -94.935974
-121.252197 -93.181015 -87.698692
-106.693695 -11.895905 -142.992661
-146.776230 13.048752 -106.430458
-102.649330 -38.130768 -137.481766
-96.689224 -65.333328 -129.360504
-89.451942 -93.181015 -119.498947
-81.576096 -121.351257 -108.767227
-58.925205 13.048752 -170.196991
-58.124798 -11.895889 -167.814240
-55.952259 -38.130783 -161.346756
-52.750633 -65.333344 -151.815720
-48.862949 -93.181015 -140.242325
-44.632217 80.248749 127.647736
-46.118694 74.550186 132.072861
-1.753246 74.550186 139.059204
-49.663349 65.303474 142.625076
-1.753246 65.303474 150.169601
-53.894077 52.186035 155.219666
-1.753246 52.186035 163.430389
-57.438740 34.875305 165.771881
-1.753246 34.875305 174.540802
-81.576096 80.248749 108.767227
-84.343285 74.550186 112.537834
-90.941971 65.303474 121.529251
-98.817841 52.186035 132.260941
-105.416512 34.875305 141.252396
-108.183716 13.048752 145.022980
-114.291092 74.550186 82.590042
-123.282501 65.303474 89.188728
-134.014191 52.186035 97.064583
-143.005615 34.875305 103.663261
-133.826111 74.550186 44.365444
-110.520485 80.248749 79.822845
-144.378311 65.303474 47.910110
-156.972916 52.186035 52.140835
-167.525131 34.875305 55.685497
-140.812439 74.550186 0.000001
-129.400986 80.248749 42.878975
-151.922836 65.303474 0.000001
-165.183624 52.186035 0.000001
-176.294052 34.875305 0.000001
125.894478 80.248749 42.878975
130.319626 74.550186 44.365448
137.305954 74.550186 0.000001
140.871826 65.303474 47.910110
148.416351 65.303474 0.000001
153.466431 52.186035 52.140839
161.677139 52.186035 0.000001
164.018646 34.875305 55.685501
172.787567 34.875305 0.000001
107.013977 80.248749 79.822845
110.784584 74.550186 82.590042
119.776001 65.303474 89.188728
130.507706 52.186035 97.064583
139.499146 34.875305 103.663261
78.069603 80.248749 108.767227
80.836792 74.550186 112.537834
87.435478 65.303474 121.529251
95.311333 52.186035 132.260941
101.910011 34.875305 141.252380
104.677208 13.048752 145.022964
42.612198 74.550186 132.072861
46.156864 65.303474 142.625076
50.387589 52.186035 155.219666
53.932251 34.875305 165.771881
41.125729 80.248749 127.647736
41.125729 80.248749 -127.647736
42.612206 74.550186 -132.072861
-1.753246 74.550186 -139.059204
46.156864 65.303474 -142.625076
-1.753246 65.303474 -150.169601
50.387592 52.186035 -155.219666
-1.753246 52.186035 -163.430389
53.932255 34.875305 -165.771881
-1.753246 34.875305 -174.540802
78.069603 80.248749 -108.767227
80.836792 74.550186 -112.537834
87.435478 65.303474 -121.529251
95.311333 52.186035 -132.260941
101.910011 34.875305 -141.252396
104.677208 13.048752 -145.022980
110.784584 74.550186 -82.590042
119.776001 65.303474 -89.188728
130.507706 52.186035 -97.064583
139.499130 34.875305 -103.663261
130.319626 74.550186 -44.365444
107.013977 80.248749 -79.822845
140.871826 65.303474 -47.910103
153.466431 52.186035 -52.140827
164.018646 34.875305 -55.685490
125.894478 80.248749 -42.878971
-129.400986 80.248749 -42.878971
-133.826111 74.550186 -44.365448
-144.378311 65.303474 -47.910103
-156.972916 52.186035 -52.140831
-167.525131 34.875305 -55.685493
-110.520485 80.248749 -79.822845
-114.291092 74.550186 -82.590042
-123.282501 65.303474 -89.188728
-134.014191 52.186035 -97.064583
-143.005646 34.875305 -103.663261
-81.576096 80.248749 -108.767227
-84.343285 74.550186 -112.537834
-90.941971 65.303474 -121.529251
-98.817841 52.186035 -132.260941
-105.416512 34.875305 -141.252380
-108.183716 13.048752 -145.022964
-46.118690 74.550186 -132.072861
-49.663349 65.303474 -142.625076
-53.894073 52.186035 -155.219666
-57.438736 34.875305 -165.771881
-44.632217 80.248749 -127.647736
264.251251 -67.591248 12.902402
258.994537 -86.244247 12.902404
261.670746 -87.267426 0.000001
243.254166 -97.558380 12.902402
245.542755 -99.202118 0.000001
217.074890 -103.368347 12.902402
218.662750 -105.330750 0.000001
180.501480 -105.508850 12.902402
181.030746 -107.588684 0.000001
133.578598 -105.814636 12.902402
132.646759 -107.911255 0.000001
257.584991 -67.591248 19.353601
252.612701 -83.804398 19.353601
237.796722 -93.638596 19.353601
213.288467 -98.688629 19.353601
179.239334 -100.549133 19.353601
135.800674 -100.814911 19.353601
249.628525 -67.591248 19.353601
244.995728 -80.892334 19.353601
231.283051 -88.960205 19.353601
208.769211 -93.103180 19.353601
177.732895 -94.629532 19.353601
138.452835 -94.847580 19.353601
242.962265 -67.591248 12.902402
238.613861 -78.452499 12.902404
225.825607 -85.040482 12.902402
204.982788 -88.423492 12.902402
176.470779 -89.669846 12.902402
140.674911 -89.847900 12.902402
240.166763 -67.591248 0.000001
235.937637 -77.429337 0.000001
223.536987 -83.396698 0.000001
203.394928 -86.461014 0.000001
175.941483 -87.589996 0.000001
141.606750 -87.751251 0.000001
238.613861 -78.452499 -12.902400
225.825607 -85.040482 -12.902399
204.982788 -88.423492 -12.902399
176.470779 -89.669846 -12.902399
140.674927 -89.847900 -12.902399
244.995728 -80.892334 -19.353601
242.962265 -67.591248 -12.902399
231.283035 -88.960205 -19.353600
208.769211 -93.103180 -19.353600
177.732895 -94.629532 -19.353601
138.452835 -94.847580 -19.353600
252.612701 -83.804398 -19.353601
249.628525 -67.591248 -19.353600
237.796738 -93.638596 -19.353600
213.288498 -98.688629 -19.353600
179.239334 -100.549133 -19.353601
135.800690 -100.814911 -19.353600
258.994537 -86.244247 -12.902400
257.584991 -67.591248 -19.353600
243.254166 -97.558380 -12.902399
217.074890 -103.368347 -12.902399
180.501450 -105.508850 -12.902399
133.578583 -105.814636 -12.902399
264.251251 -67.591248 -12.902399
169.418594 37.133232 12.902402
204.191422 18.701721 12.902404
204.541809 21.005219 0.000001
230.823715 -1.332260 12.902402
232.210266 0.630188 0.000001
249.552826 -22.622940 12.902402
251.707214 -21.035095 0.000001
260.616211 -44.824524 12.902402
263.247711 -43.829330 0.000001
267.046753 -67.591248 0.000001
171.640686 30.467010 19.353601
203.355942 13.208740 19.353601
227.517242 -6.011963 19.353601
244.415359 -26.409363 19.353601
254.341064 -47.197723 19.353601
174.292847 22.510513 19.353601
202.358719 6.652603 19.353601
223.570831 -11.597412 19.353601
238.283585 -30.928650 19.353601
246.851364 -50.030228 19.353601
176.514923 15.844269 12.902402
201.523224 1.159622 12.902404
220.264374 -16.277115 12.902402
233.146149 -34.715088 12.902402
240.576187 -52.403412 12.902402
201.172836 -1.143890 0.000001
218.877792 -18.239563 0.000001
230.991730 -36.302933 0.000001
237.944672 -53.398621 0.000001
201.523224 1.159622 -12.902400
220.264374 -16.277115 -12.902399
233.146149 -34.715088 -12.902399
240.576187 -52.403412 -12.902399
202.358704 6.652603 -19.353601
176.514923 15.844269 -12.902399
223.570816 -11.597412 -19.353600
238.283585 -30.928650 -19.353600
246.851364 -50.030212 -19.353601
203.355942 13.208740 -19.353601
174.292847 22.510498 -19.353600
227.517212 -6.011963 -19.353600
244.415359 -26.409378 -19.353600
254.341064 -47.197723 -19.353601
204.191422 18.701721 -12.902400
171.640671 30.466980 -19.353600
230.823715 -1.332260 -12.902399
249.552826 -22.622940 -12.902399
260.616211 -44.824524 -12.902399
169.418594 37.133232 -12.902399
-291.842194 -121.351257 10.752001
-259.932587 -94.477707 12.585863
-263.600281 -93.611115 0.000001
-245.308685 -58.275726 16.958916
-248.260757 -55.871582 0.000001
-232.862762 -20.151276 22.178366
-235.501740 -15.874130 0.000001
-207.486893 12.489655 26.551420
-209.410217 18.639786 0.000001
-154.073242 32.241074 28.385281
-154.073242 39.928749 0.000001
-278.509705 -121.351257 16.128000
-251.186447 -96.544250 18.878794
-238.269135 -64.008698 25.438370
-226.569809 -30.350616 33.267551
-202.900513 -2.176086 39.827129
-154.073242 13.908905 42.577919
-262.596771 -121.351257 16.128000
-240.747574 -99.010742 18.878794
-229.867111 -70.851257 25.438370
-219.058899 -42.524048 33.267551
-197.426468 -19.680328 39.827129
-154.073257 -7.971405 42.577919
-249.264297 -121.351288 10.752001
-232.001465 -101.077301 12.585863
-222.827560 -76.584229 16.958916
-212.765991 -52.723373 22.178366
-192.840103 -34.346054 26.551420
-154.073242 -26.303558 28.385281
-243.673248 -121.351257 0.000001
-228.333725 -101.943878 0.000001
-219.875473 -78.988358 0.000001
-210.126999 -57.000519 0.000001
-190.916763 -40.496185 0.000001
-154.073242 -33.991241 0.000001
-232.001465 -101.077271 -12.585860
-222.827545 -76.584213 -16.958914
-212.765961 -52.723373 -22.178366
-192.840088 -34.346054 -26.551422
-154.073242 -26.303574 -28.385283
-240.747574 -99.010742 -18.878792
-249.264297 -121.351257 -10.752000
-229.867111 -70.851257 -25.438372
-219.058899 -42.524033 -33.267548
-197.426468 -19.680328 -39.827129
-154.073242 -7.971405 -42.577919
-251.186478 -96.544250 -18.878792
-262.596771 -121.351257 -16.128000
-238.269135 -64.008682 -25.438372
-226.569839 -30.350616 -33.267548
-202.900513 -2.176071 -39.827129
-154.073257 13.908905 -42.577919
-259.932587 -94.477737 -12.585860
-278.509735 -121.351257 -16.128000
-245.308716 -58.275726 -16.958914
-232.862762 -20.151276 -22.178366
-207.486893 12.489655 -26.551422
-154.073242 32.241074 -28.385283
-291.842194 -121.351288 -10.752000
-295.372314 -125.877411 6.898484
-299.942047 -126.028351 0.000001
-288.473236 -121.351257 0.000001
-301.787384 -127.923767 7.965083
-307.110046 -128.125000 0.000001
-303.598877 -127.706970 9.238119
-309.439636 -127.883087 0.000001
-300.414581 -125.443909 10.304718
-306.393250 -125.544556 0.000001
-297.433228 -121.351257 0.000001
-284.475220 -125.517456 10.347726
-284.745880 -121.351257 6.451200
-289.094879 -127.443756 11.947624
-289.670868 -127.286987 13.857179
-286.157684 -125.203918 15.457077
-271.469055 -125.087769 10.347726
-275.857574 -121.351257 9.676801
-273.945709 -126.870880 11.947624
-273.047150 -126.785736 13.857179
-269.141449 -124.917511 15.457077
-260.571960 -124.727814 6.898484
-265.248932 -121.351257 9.676801
-261.253204 -126.390930 7.965083
-259.119141 -126.365753 9.238119
-254.884567 -124.677490 10.304718
-256.002228 -124.576843 0.000001
-256.360596 -121.351288 6.451200
-255.930527 -126.189636 0.000001
-253.278351 -126.189636 0.000001
-248.905884 -124.576874 0.000001
-256.360596 -121.351257 -6.451200
-260.571960 -124.727814 -6.898483
-261.253204 -126.390930 -7.965082
-259.119141 -126.365753 -9.238117
-254.884583 -124.677490 -10.304716
-265.248901 -121.351257 -9.676799
-271.469025 -125.087799 -10.347725
-273.945709 -126.870911 -11.947621
-273.047150 -126.785736 -13.857175
-269.141449 -124.917511 -15.457074
-275.857574 -121.351257 -9.676799
-284.475220 -125.517456 -10.347725
-289.094879 -127.443787 -11.947621
-289.670868 -127.286987 -13.857175
-286.157715 -125.203918 -15.457074
-284.745880 -121.351288 -6.451200
-295.372314 -125.877441 -6.898483
-301.787384 -127.923767 -7.965082
-303.598877 -127.706970 -9.238117
-300.414551 -125.443939 -10.304716
-6.882461 -157.585480 15.251304
-1.753246 -157.585480 16.056320
-1.753246 -148.231262 17.920000
-9.594189 -168.229950 23.287901
-1.753246 -168.229950 24.514557
-12.028189 -178.229340 30.506731
-1.753246 -178.229340 32.112640
-10.607021 -185.648224 26.285019
-1.753246 -185.648224 27.668480
-1.753246 -188.551270 0.000001
-11.296847 -157.585480 12.999015
-7.470443 -148.231262 17.019701
-16.335228 -168.229950 19.854006
-20.859028 -178.229340 26.010412
-18.215837 -185.648224 22.411364
-14.752258 -157.585480 9.543602
-12.396293 -148.231262 14.502298
-21.607250 -168.229980 14.581983
-27.763659 -178.229340 19.105782
-24.164610 -185.648224 16.462591
-18.772945 -148.231262 5.717197
-17.004549 -157.585480 5.129215
-25.041149 -168.229950 7.840943
-32.259983 -178.229340 10.274944
-28.038269 -185.648224 8.853776
-19.673244 -148.231262 0.000001
-17.809566 -157.585480 0.000001
-26.267803 -168.229950 0.000001
-33.865887 -178.229340 0.000001
-29.421728 -185.648224 0.000001
13.498056 -157.585480 5.129216
14.303074 -157.585480 0.000001
16.166754 -148.231262 0.000001
21.534655 -168.229950 7.840943
22.761311 -168.229950 0.000001
28.753485 -178.229340 10.274944
30.359392 -178.229340 0.000001
24.531773 -185.648224 8.853776
25.915234 -185.648224 0.000001
11.245768 -157.585480 9.543602
15.266455 -148.231262 5.717198
18.100758 -168.229950 14.581984
24.257166 -178.229340 19.105783
20.658117 -185.648224 16.462591
7.790356 -157.585480 12.999015
12.749052 -148.231262 10.643047
12.828735 -168.229980 19.854006
17.352535 -178.229340 26.010412
14.709345 -185.648224 22.411364
3.963951 -148.231262 17.019701
3.375968 -157.585480 15.251305
6.087698 -168.229950 23.287901
8.521698 -178.229340 30.506735
7.100530 -185.648224 26.285023
3.375969 -157.585480 -15.251301
-1.753246 -157.585480 -16.056320
-1.753246 -148.231262 -17.920000
6.087698 -168.229950 -23.287903
-1.753246 -168.229950 -24.514559
8.521698 -178.229340 -30.506733
-1.753246 -178.229340 -32.112640
7.100530 -185.648224 -26.285021
-1.753246 -185.648224 -27.668482
7.790356 -157.585480 -12.999011
3.963953 -148.231262 -17.019699
12.828737 -168.229950 -19.854006
17.352535 -178.229340 -26.010414
14.709345 -185.648224 -22.411366
11.245768 -157.585480 -9.543601
8.889801 -148.231262 -14.502295
18.100758 -168.229980 -14.581980
24.257166 -178.229340 -19.105782
20.658117 -185.648224 -16.462589
15.266455 -148.231262 -5.717196
13.498058 -157.585480 -5.129213
21.534655 -168.229950 -7.840943
28.753489 -178.229340 -10.274942
24.531776 -185.648224 -8.853774
-17.004547 -157.585480 -5.129214
-25.041149 -168.229950 -7.840943
-32.259979 -178.229340 -10.274942
-28.038267 -185.648224 -8.853774
-14.752258 -157.585480 -9.543601
-18.772945 -148.231262 -5.717197
-21.607250 -168.229950 -14.581981
-27.763659 -178.229340 -19.105782
-24.164610 -185.648224 -16.462591
-11.296847 -157.585480 -12.999011
-16.255543 -148.231262 -10.643045
-16.335226 -168.229980 -19.854006
-20.859026 -178.229340 -26.010414
-18.215836 -185.648224 -22.411366
-7.470443 -148.231262 -17.019699
-6.882460 -157.585480 -15.251302
-9.594189 -168.229950 -23.287903
-12.028189 -178.229340 -30.506737
-10.607021 -185.648224 -26.285025
-36.193638 -128.017487 102.526672
-1.753246 -128.017487 107.950081
-1.753246 -121.351257 116.479996
-29.493086 -132.748383 82.579590
-1.753246 -132.748352 86.947838
-21.008762 -136.834137 57.322350
-1.753246 -136.834137 60.354561
-12.936083 -141.565033 33.290535
-1.753246 -141.565002 35.051521
-65.866959 -128.017487 87.361839
-38.915020 -121.351257 110.628044
-53.393303 -132.748383 70.365143
-37.599026 -136.834137 48.843739
-22.571043 -141.565033 28.366491
-89.115082 -128.017487 64.113708
-70.933044 -121.351257 94.264931
-72.118393 -132.748352 51.640064
-50.596981 -136.834137 35.845776
-30.119738 -141.565033 20.817799
-16.255543 -148.231262 10.643047
-112.381287 -121.351288 37.161777
-104.279922 -128.017517 34.440395
-84.332825 -132.748383 27.739838
-59.075584 -136.834137 19.255518
-35.043777 -141.565033 11.182838
-118.233246 -121.351257 0.000001
-109.703331 -128.017487 0.000001
-88.701080 -132.748352 0.000001
-62.107800 -136.834137 0.000001
-36.804768 -141.565002 0.000001
100.773422 -128.017487 34.440395
106.196831 -128.017487 0.000001
114.726746 -121.351257 0.000001
80.826340 -132.748383 27.739838
85.194588 -132.748352 0.000001
55.569103 -136.834137 19.255518
58.601315 -136.834137 0.000001
31.537287 -141.565033 11.182838
33.298275 -141.565002 0.000001
85.608589 -128.017487 64.113708
108.874794 -121.351257 37.161777
68.611900 -132.748383 51.640064
47.090492 -136.834137 35.845783
26.613245 -141.565033 20.817799
62.360462 -128.017487 87.361839
92.511673 -121.351257 69.179802
49.886818 -132.748352 70.365143
34.092529 -136.834137 48.843739
19.064550 -141.565033 28.366491
8.889801 -148.231262 14.502298
35.408531 -121.351288 110.628036
32.687149 -128.017517 102.526672
25.986591 -132.748383 82.579575
17.502272 -136.834137 57.322346
9.429592 -141.565033 33.290531
32.687149 -128.017487 -102.526672
-1.753246 -128.017487 -107.950081
-1.753246 -121.351257 -116.479996
25.986591 -132.748383 -82.579590
-1.753246 -132.748352 -86.947838
17.502272 -136.834137 -57.322342
-1.753246 -136.834137 -60.354553
9.429592 -141.565033 -33.290535
-1.753246 -141.565002 -35.051517
62.360470 -128.017487 -87.361839
35.408531 -121.351257 -110.628044
49.886818 -132.748383 -70.365143
34.092537 -136.834137 -48.843731
19.064550 -141.565033 -28.366491
92.511673 -121.351257 -69.179794
85.608589 -128.017487 -64.113708
68.611900 -132.748352 -51.640057
47.090492 -136.834137 -35.845776
26.613245 -141.565033 -20.817797
12.749052 -148.231262 -10.643045
108.874786 -121.351288 -37.161774
100.773422 -128.017517 -34.440392
80.826332 -132.748383 -27.739840
55.569099 -136.834137 -19.255518
31.537283 -141.565033 -11.182837
-104.279922 -128.017487 -34.440392
-84.332832 -132.748383 -27.739840
-59.075588 -136.834137 -19.255518
-35.043781 -141.565033 -11.182837
-89.115082 -128.017487 -64.113708
-112.381302 -121.351257 -37.161774
-72.118393 -132.748383 -51.640057
-50.596981 -136.834137 -35.845779
-30.119738 -141.565033 -20.817797
-65.866951 -128.017487 -87.361839
-96.018181 -121.351257 -69.179802
-53.393303 -132.748352 -70.365143
-37.599022 -136.834137 -48.843731
-22.571043 -141.565033 -28.366491
-12.396293 -148.231262 -14.502295
-38.915020 -121.351288 -110.628036
-36.193638 -128.017517 -102.526672
-29.493086 -132.748383 -82.579575
-21.008762 -136.834137 -57.322338
-12.936083 -141.565033 -33.290531
-44.083366 84.226990 -126.013840
-1.753246 84.226990 -132.679672
-1.753246 80.248749 -134.399994
-41.270508 87.882675 -117.640152
-1.753246 87.882675 -123.863029
-34.444176 90.893219 -97.318634
-1.753246 90.893219 -102.466560
-21.854908 92.936111 -59.841259
-1.753246 92.936111 -63.006714
-1.753246 93.688751 0.000001
-80.554359 84.226990 -107.375015
-44.632217 80.248749 -127.647736
-75.317978 87.882675 -100.239876
-62.610180 90.893219 -82.924141
-39.174198 92.936111 -50.990074
-109.128265 84.226990 -78.801117
-101.993134 87.882675 -73.564735
-84.677383 90.893219 -60.856934
-52.743320 92.936111 -37.420952
-129.400986 80.248749 -42.878971
-127.767090 84.226990 -42.330124
-119.393402 87.882675 -39.517262
-99.071892 90.893219 -32.690929
-61.594498 92.936111 -20.101664
-136.153244 80.248749 0.000001
-134.432907 84.226990 0.000001
-125.616280 87.882675 0.000001
-104.219810 90.893219 0.000001
-64.759964 92.936111 0.000001
124.260582 84.226990 -42.330120
130.926422 84.226990 0.000001
132.646759 80.248749 0.000001
115.886894 87.882675 -39.517262
122.109779 87.882675 0.000001
95.565384 90.893219 -32.690929
100.713303 90.893219 0.000001
58.088020 92.936111 -20.101662
61.253475 92.936111 0.000001
105.621765 84.226990 -78.801117
125.894478 80.248749 -42.878971
98.486626 87.882675 -73.564735
81.170891 90.893219 -60.856934
49.236835 92.936111 -37.420952
77.047867 84.226990 -107.375015
71.811485 87.882675 -100.239876
59.103695 90.893219 -82.924141
35.667706 92.936111 -50.990074
41.125729 80.248749 -127.647736
40.576878 84.226990 -126.013840
37.764015 87.882675 -117.640152
30.937685 90.893219 -97.318634
18.348417 92.936111 -59.841251
40.576878 84.226990 126.013840
-1.753246 84.226990 132.679672
-1.753246 80.248749 134.399994
37.764015 87.882675 117.640152
-1.753246 87.882675 123.863029
30.937681 90.893219 97.318634
-1.753246 90.893219 102.466560
18.348417 92.936111 59.841267
-1.753246 92.936111 63.006721
77.047867 84.226990 107.375015
41.125729 80.248749 127.647736
71.811485 87.882675 100.239876
59.103695 90.893219 82.924141
35.667706 92.936111 50.990082
105.621765 84.226990 78.801117
98.486626 87.882675 73.564735
81.170891 90.893219 60.856941
49.236835 92.936111 37.420952
125.894478 80.248749 42.878975
124.260582 84.226990 42.330124
115.886894 87.882675 39.517262
95.565384 90.893219 32.690933
58.088013 92.936111 20.101665
-127.767090 84.226990 42.330124
-119.393402 87.882675 39.517262
-99.071892 90.893219 32.690929
-61.594505 92.936111 20.101664
-109.128265 84.226990 78.801117
-129.400986 80.248749 42.878975
-101.993134 87.882675 73.564735
-84.677383 90.893219 60.856941
-52.743320 92.936111 37.420952
-80.554359 84.226990 107.375015
-75.317978 87.882675 100.239876
-62.610180 90.893219 82.924141
-39.174198 92.936111 50.990082
-44.632217 80.248749 127.647736
-44.083370 84.226990 126.013840
-41.270508 87.882675 117.640152
-34.444180 90.893219 97.318634
-21.854910 92.936111 59.841259
168.486755 39.928749 0.000001
-252.633240 -121.351257 0.000001
-96.018181 -121.351257 69.179794
67.426544 -121.351257 94.264931
67.426552 -121.351257 -94.264931
-70.933037 -121.351257 -94.264931
3 0 1 2
3 3 4 1
3 5 6 4
3 7 8 6
3 7 9 10
3 11 0 12
3 13 3 0
3 14 5 3
3 15 7 5
3 15 16 9
3 17 11 18
3 19 13 11
3 19 20 14
3 21 15 14
3 21 22 16
3 23 24 17
3 24 25 19
3 25 26 20
3 26 27 21
3 28 22 21
3 29 30 24
3 30 31 25
3 31 32 26
3 32 33 27
3 34 28 27
3 35 36 37
3 38 39 36
3 40 41 39
3 42 43 41
3 42 44 45
3 46 35 47
3 48 38 35
3 49 40 38
3 50 42 40
3 50 51 44
3 52 46 53
3 52 54 48
3 55 49 48
3 55 56 50
3 57 51 50
3 58 59 52
3 59 60 54
3 60 61 55
3 61 62 56
3 63 57 56
3 2 1 59
3 1 4 60
3 4 6 61
3 6 8 62
3 10 63 62
3 64 65 66
3 67 68 65
3 69 70 68
3 71 72 70
3 71 73 74
3 75 64 76
3 77 67 64
3 78 69 67
3 79 71 69
3 79 80 73
3 81 75 82
3 83 77 75
3 83 84 78
3 85 79 78
3 85 86 80
3 87 88 81
3 88 89 83
3 89 90 84
3 90 91 85
3 92 86 85
3 37 36 88
3 36 39 89
3 39 41 90
3 41 43 91
3 45 92 91
3 93 30 29
3 94 31 30
3 95 32 31
3 96 33 32
3 96 97 34
3 98 93 99
3 100 94 93
3 101 95 94
3 102 96 95
3 102 103 97
3 104 98 105
3 104 106 100
3 106 107 101
3 108 102 101
3 109 103 102
3 110 111 104
3 111 112 106
3 112 113 107
3 113 114 108
3 115 109 108
3 66 65 111
3 65 68 112
3 68 70 113
3 70 72 114
3 74 115 114
3 116 117 118
3 119 120 117
3 121 122 120
3 123 124 122
3 12 2 124
3 125 116 126
3 127 119 116
3 128 121 119
3 129 123 121
3 18 12 123
3 130 131 125
3 131 132 127
3 132 133 128
3 134 129 128
3 134 135 18
3 136 137 131
3 137 138 132
3 138 139 133
3 139 140 134
3 140 23 135
3 141 142 137
3 142 143 138
3 143 144 139
3 144 145 140
3 145 29 23
3 146 147 148
3 149 150 147
3 151 152 150
3 153 154 152
3 47 37 154
3 155 146 156
3 157 149 146
3 158 151 149
3 159 153 151
3 53 47 153
3 160 155 161
3 162 157 155
3 162 163 158
3 164 159 158
3 165 53 159
3 166 167 160
3 167 168 162
3 168 169 163
3 169 170 164
3 170 58 165
3 118 117 167
3 117 120 168
3 120 122 169
3 122 124 170
3 124 2 58
3 171 172 173
3 174 175 172
3 176 177 175
3 178 179 177
3 76 66 179
3 180 171 181
3 182 174 171
3 183 176 174
3 184 178 176
3 82 76 178
3 185 186 180
3 187 182 180
3 187 188 183
3 188 189 184
3 189 190 82
3 191 192 186
3 192 193 187
3 193 194 188
3 194 195 189
3 195 87 190
3 148 147 192
3 147 150 193
3 150 152 194
3 152 154 195
3 154 37 87
3 196 142 141
3 197 143 142
3 198 144 143
3 199 145 144
3 99 29 145
3 200 196 201
3 202 197 196
3 203 198 197
3 204 199 198
3 105 99 199
3 205 200 206
3 207 202 200
3 207 208 203
3 209 204 203
3 209 210 105
3 211 212 205
3 212 213 207
3 213 214 208
3 214 215 209
3 215 110 210
3 173 172 212
3 172 175 213
3 175 177 214
3 177 179 215
3 179 66 110
3 216 217 218
3 217 219 220
3 219 221 222
3 221 223 224
3 223 126 118
3 225 226 217
3 226 227 219
3 227 228 221
3 228 229 223
3 229 230 126
3 231 226 225
3 232 227 226
3 232 233 228
3 234 229 228
3 234 130 230
3 235 231 236
3 237 232 231
3 238 233 232
3 239 234 233
3 136 130 234
3 240 235 241
3 242 237 235
3 243 238 237
3 244 239 238
3 141 136 239
3 245 246 247
3 246 248 249
3 248 250 251
3 250 252 253
3 252 156 148
3 254 255 246
3 255 256 248
3 256 257 250
3 257 258 252
3 258 161 156
3 259 260 255
3 261 256 255
3 262 257 256
3 263 258 257
3 264 161 258
3 265 260 259
3 266 261 260
3 267 262 261
3 268 263 262
3 166 264 263
3 218 265 269
3 220 266 265
3 222 267 266
3 224 268 267
3 118 166 268
3 270 271 272
3 271 273 274
3 273 275 276
3 275 277 278
3 277 181 173
3 279 280 271
3 280 281 273
3 281 282 275
3 282 283 277
3 283 284 181
3 285 280 279
3 286 281 280
3 286 287 282
3 288 283 282
3 185 284 283
3 289 285 290
3 291 286 285
3 292 287 286
3 293 288 287
3 191 185 288
3 247 289 294
3 249 291 289
3 251 292 291
3 253 293 292
3 148 191 293
3 295 296 240
3 296 297 242
3 297 298 243
3 298 299 244
3 299 201 141
3 300 301 296
3 301 302 297
3 302 303 298
3 303 304 299
3 304 206 201
3 305 306 301
3 306 307 302
3 308 303 302
3 309 304 303
3 310 206 304
3 311 306 305
3 312 307 306
3 313 308 307
3 314 309 308
3 211 310 309
3 272 311 315
3 274 312 311
3 276 313 312
3 278 314 313
3 173 211 314
3 316 317 318
3 317 319 320
3 319 321 322
3 321 323 324
3 325 326 324
3 327 328 317
3 328 329 319
3 329 330 321
3 330 331 323
3 332 325 323
3 333 334 328
3 334 335 329
3 335 336 330
3 336 337 331
3 338 332 331
3 339 340 334
3 340 341 335
3 341 342 336
3 342 343 337
3 344 338 337
3 345 346 340
3 346 347 341
3 347 348 342
3 348 349 343
3 350 344 343
3 351 346 345
3 352 347 346
3 353 348 347
3 354 349 348
3 354 355 350
3 356 351 357
3 358 352 351
3 359 353 352
3 360 354 353
3 360 361 355
3 362 356 363
3 364 358 356
3 365 359 358
3 366 360 359
3 366 367 361
3 368 362 369
3 370 364 362
3 371 365 364
3 372 366 365
3 372 373 367
3 318 368 374
3 320 370 368
3 322 371 370
3 324 372 371
3 324 326 373
3 375 376 377
3 376 378 379
3 378 380 381
3 380 382 383
3 382 316 384
3 385 386 376
3 386 387 378
3 387 388 380
3 388 389 382
3 389 327 316
3 390 391 386
3 391 392 387
3 392 393 388
3 393 394 389
3 394 333 327
3 395 396 391
3 396 397 392
3 397 398 393
3 398 399 394
3 399 339 333
3 148 400 396
3 400 401 397
3 401 402 398
3 402 403 399
3 403 345 339
3 404 400 148
3 405 401 400
3 406 402 401
3 407 403 402
3 357 345 403
3 408 404 409
3 410 405 404
3 411 406 405
3 412 407 406
3 363 357 407
3 413 408 414
3 415 410 408
3 416 411 410
3 417 412 411
3 369 363 412
3 418 413 419
3 420 415 413
3 421 416 415
3 422 417 416
3 374 369 417
3 377 418 423
3 379 420 418
3 381 421 420
3 383 422 421
3 384 374 422
3 424 425 426
3 425 427 428
3 429 430 428
3 431 432 430
3 433 434 432
3 435 436 425
3 436 437 427
3 438 429 427
3 439 431 429
3 440 433 431
3 441 442 436
3 443 437 436
3 444 438 437
3 445 439 438
3 446 440 439
3 447 448 442
3 449 443 442
3 450 444 443
3 451 445 444
3 452 446 445
3 453 454 448
3 455 449 448
3 456 450 449
3 457 451 450
3 458 452 451
3 459 454 453
3 459 460 455
3 460 461 456
3 461 462 457
3 462 463 458
3 464 459 465
3 464 466 460
3 466 467 461
3 467 468 462
3 468 469 463
3 470 464 471
3 470 472 466
3 472 473 467
3 473 474 468
3 474 475 469
3 476 470 477
3 478 472 470
3 478 479 473
3 479 480 474
3 480 481 475
3 426 476 482
3 428 478 476
3 428 430 479
3 430 432 480
3 432 434 481
3 483 484 485
3 486 487 484
3 488 489 487
3 488 490 491
3 490 424 492
3 493 483 494
3 495 486 483
3 496 488 486
3 496 497 490
3 497 435 424
3 498 493 499
3 500 495 493
3 500 501 496
3 501 502 497
3 502 441 435
3 503 498 504
3 505 500 498
3 505 506 501
3 506 507 502
3 507 447 441
3 508 503 509
3 510 505 503
3 510 511 506
3 511 512 507
3 512 453 447
3 513 514 508
3 514 515 510
3 516 511 510
3 517 512 511
3 465 453 512
3 518 519 514
3 519 520 515
3 521 516 515
3 522 517 516
3 471 465 517
3 523 524 519
3 524 525 520
3 526 521 520
3 527 522 521
3 477 471 522
3 528 529 524
3 529 530 525
3 530 531 526
3 532 527 526
3 482 477 527
3 485 484 529
3 484 487 530
3 487 489 531
3 491 532 531
3 492 482 532
3 533 534 535
3 533 536 537
3 536 538 539
3 540 541 539
3 540 542 541
3 543 533 544
3 543 545 536
3 545 546 538
3 547 540 538
3 547 542 540
3 548 543 549
3 548 550 545
3 550 551 546
3 551 552 547
3 552 542 547
3 553 554 548
3 555 550 548
3 556 551 550
3 556 557 552
3 557 542 552
3 558 559 554
3 560 555 554
3 561 556 555
3 561 562 557
3 562 542 557
3 563 564 565
3 563 566 567
3 566 568 569
3 570 571 569
3 570 542 571
3 572 563 573
3 572 574 566
3 574 575 568
3 576 570 568
3 576 542 570
3 577 572 578
3 579 574 572
3 579 580 575
3 581 576 575
3 581 542 576
3 582 583 577
3 584 579 577
3 585 580 579
3 585 586 581
3 586 542 581
3 535 534 583
3 537 584 583
3 539 585 584
3 539 541 586
3 541 542 586
3 587 588 589
3 587 590 591
3 590 592 593
3 594 595 593
3 594 542 595
3 596 587 597
3 596 598 590
3 598 599 592
3 600 594 592
3 600 542 594
3 601 596 602
3 601 603 598
3 603 604 599
3 604 605 600
3 605 542 600
3 606 607 601
3 608 603 601
3 609 604 603
3 609 610 605
3 610 542 605
3 565 564 607
3 567 608 607
3 569 609 608
3 569 571 610
3 571 542 610
3 611 559 558
3 611 612 560
3 612 613 561
3 614 562 561
3 614 542 562
3 615 611 616
3 615 617 612
3 617 618 613
3 619 614 613
3 619 542 614
3 620 615 621
3 622 617 615
3 622 623 618
3 624 619 618
3 624 542 619
3 625 626 620
3 627 622 620
3 628 623 622
3 628 629 624
3 629 542 624
3 589 588 626
3 591 627 626
3 593 628 627
3 593 595 629
3 595 542 629
3 630 631 632
3 633 634 631
3 635 636 634
3 637 638 636
3 544 535 638
3 639 630 640
3 641 633 630
3 642 635 633
3 643 637 635
3 549 544 637
3 644 639 645
3 646 641 639
3 647 642 641
3 648 643 642
3 648 649 549
3 650 651 644
3 651 652 646
3 652 653 647
3 653 654 648
3 654 553 649
3 655 656 651
3 656 657 652
3 657 658 653
3 658 659 654
3 659 558 553
3 660 661 662
3 663 664 661
3 665 666 664
3 667 668 666
3 573 565 668
3 669 660 670
3 671 663 660
3 672 665 663
3 673 667 665
3 578 573 667
3 674 669 675
3 676 671 669
3 676 677 672
3 678 673 672
3 679 578 673
3 680 681 674
3 681 682 676
3 682 683 677
3 683 684 678
3 684 582 679
3 632 631 681
3 631 634 682
3 634 636 683
3 636 638 684
3 638 535 582
3 685 686 687
3 688 689 686
3 690 691 689
3 692 693 691
3 597 589 693
3 694 685 695
3 696 688 685
3 697 690 688
3 698 692 690
3 602 597 692
3 699 700 694
3 700 701 696
3 702 697 696
3 703 698 697
3 703 704 602
3 705 706 700
3 706 707 701
3 707 708 702
3 708 709 703
3 709 606 704
3 662 661 706
3 661 664 707
3 664 666 708
3 666 668 709
3 668 565 606
3 710 656 655
3 711 657 656
3 712 658 657
3 713 659 658
3 616 558 659
3 714 710 715
3 716 711 710
3 717 712 711
3 718 713 712
3 621 616 713
3 719 714 720
3 721 716 714
3 722 717 716
3 723 718 717
3 723 724 621
3 725 726 719
3 726 727 721
3 727 728 722
3 728 729 723
3 729 625 724
3 687 686 726
3 686 689 727
3 689 691 728
3 691 693 729
3 693 589 625
3 730 731 732
3 733 734 731
3 735 736 734
3 737 738 736
3 737 739 738
3 740 730 741
3 742 733 730
3 743 735 733
3 744 737 735
3 744 739 737
3 745 740 305
3 746 742 740
3 747 743 742
3 748 744 743
3 748 739 744
3 749 750 745
3 750 751 746
3 751 752 747
3 752 753 748
3 753 739 748
3 754 755 750
3 755 756 751
3 756 757 752
3 757 758 753
3 758 739 753
3 759 760 761
3 762 763 760
3 764 765 763
3 766 767 765
3 766 739 767
3 768 759 769
3 770 762 759
3 771 764 762
3 772 766 764
3 772 739 766
3 773 768 290
3 774 770 768
3 775 771 770
3 776 772 771
3 776 739 772
3 777 778 773
3 778 779 774
3 779 780 775
3 780 781 776
3 781 739 776
3 732 731 778
3 731 734 779
3 734 736 780
3 736 738 781
3 738 739 781
3 782 783 784
3 785 786 783
3 787 788 786
3 789 790 788
3 789 739 790
3 791 782 792
3 793 785 782
3 794 787 785
3 795 789 787
3 795 739 789
3 796 791 259
3 797 793 791
3 797 798 794
3 799 795 794
3 799 739 795
3 800 801 796
3 801 802 797
3 802 803 798
3 803 804 799
3 804 739 799
3 761 760 801
3 760 763 802
3 763 765 803
3 765 767 804
3 767 739 804
3 805 755 754
3 806 756 755
3 807 757 756
3 808 758 757
3 808 739 758
3 809 805 810
3 811 806 805
3 812 807 806
3 813 808 807
3 813 739 808
3 225 814 809
3 814 815 811
3 815 816 812
3 817 813 812
3 817 739 813
3 818 819 814
3 819 820 815
3 820 821 816
3 821 822 817
3 822 739 817
3 784 783 819
3 783 786 820
3 786 788 821
3 788 790 822
3 790 739 822
3 12 0 2
3 0 3 1
3 3 5 4
3 5 7 6
3 8 7 10
3 18 11 12
3 11 13 0
3 13 14 3
3 14 15 5
3 7 15 9
3 135 17 18
3 17 19 11
3 13 19 14
3 20 21 14
3 15 21 16
3 135 23 17
3 17 24 19
3 19 25 20
3 20 26 21
3 27 28 21
3 23 29 24
3 24 30 25
3 25 31 26
3 26 32 27
3 33 34 27
3 47 35 37
3 35 38 36
3 38 40 39
3 40 42 41
3 43 42 45
3 53 46 47
3 46 48 35
3 48 49 38
3 49 50 40
3 42 50 44
3 165 52 53
3 46 52 48
3 54 55 48
3 49 55 50
3 56 57 50
3 165 58 52
3 52 59 54
3 54 60 55
3 55 61 56
3 62 63 56
3 58 2 59
3 59 1 60
3 60 4 61
3 61 6 62
3 8 10 62
3 76 64 66
3 64 67 65
3 67 69 68
3 69 71 70
3 72 71 74
3 82 75 76
3 75 77 64
3 77 78 67
3 78 79 69
3 71 79 73
3 190 81 82
3 81 83 75
3 77 83 78
3 84 85 78
3 79 85 80
3 190 87 81
3 81 88 83
3 83 89 84
3 84 90 85
3 91 92 85
3 87 37 88
3 88 36 89
3 89 39 90
3 90 41 91
3 43 45 91
3 99 93 29
3 93 94 30
3 94 95 31
3 95 96 32
3 33 96 34
3 105 98 99
3 98 100 93
3 100 101 94
3 101 102 95
3 96 102 97
3 210 104 105
3 98 104 100
3 100 106 101
3 107 108 101
3 108 109 102
3 210 110 104
3 104 111 106
3 106 112 107
3 107 113 108
3 114 115 108
3 110 66 111
3 111 65 112
3 112 68 113
3 113 70 114
3 72 74 114
3 126 116 118
3 116 119 117
3 119 121 120
3 121 123 122
3 123 12 124
3 230 125 126
3 125 127 116
3 127 128 119
3 128 129 121
3 129 18 123
3 230 130 125
3 125 131 127
3 127 132 128
3 133 134 128
3 129 134 18
3 130 136 131
3 131 137 132
3 132 138 133
3 133 139 134
3 134 140 135
3 136 141 137
3 137 142 138
3 138 143 139
3 139 144 140
3 140 145 23
3 156 146 148
3 146 149 147
3 149 151 150
3 151 153 152
3 153 47 154
3 161 155 156
3 155 157 146
3 157 158 149
3 158 159 151
3 159 53 153
3 264 160 161
3 160 162 155
3 157 162 158
3 163 164 158
3 164 165 159
3 264 166 160
3 160 167 162
3 162 168 163
3 163 169 164
3 164 170 165
3 166 118 167
3 167 117 168
3 168 120 169
3 169 122 170
3 170 124 58
3 181 171 173
3 171 174 172
3 174 176 175
3 176 178 177
3 178 76 179
3 284 180 181
3 180 182 171
3 182 183 174
3 183 184 176
3 184 82 178
3 284 185 180
3 186 187 180
3 182 187 183
3 183 188 184
3 184 189 82
3 185 191 186
3 186 192 187
3 187 193 188
3 188 194 189
3 189 195 190
3 191 148 192
3 192 147 193
3 193 150 194
3 194 152 195
3 195 154 87
3 201 196 141
3 196 197 142
3 197 198 143
3 198 199 144
3 199 99 145
3 206 200 201
3 200 202 196
3 202 203 197
3 203 204 198
3 204 105 199
3 310 205 206
3 205 207 200
3 202 207 203
3 208 209 203
3 204 209 105
3 310 211 205
3 205 212 207
3 207 213 208
3 208 214 209
3 209 215 210
3 211 173 212
3 212 172 213
3 213 175 214
3 214 177 215
3 215 179 110
3 784 216 218
3 218 217 220
3 220 219 222
3 222 221 224
3 224 223 118
3 216 225 217
3 217 226 219
3 219 227 221
3 221 228 223
3 223 229 126
3 236 231 225
3 231 232 226
3 227 232 228
3 233 234 228
3 229 234 230
3 241 235 236
3 235 237 231
3 237 238 232
3 238 239 233
3 239 136 234
3 754 240 241
3 240 242 235
3 242 243 237
3 243 244 238
3 244 141 239
3 761 245 247
3 247 246 249
3 249 248 251
3 251 250 253
3 253 252 148
3 245 254 246
3 246 255 248
3 248 256 250
3 250 257 252
3 252 258 156
3 254 259 255
3 260 261 255
3 261 262 256
3 262 263 257
3 263 264 258
3 269 265 259
3 265 266 260
3 266 267 261
3 267 268 262
3 268 166 263
3 784 218 269
3 218 220 265
3 220 222 266
3 222 224 267
3 224 118 268
3 732 270 272
3 272 271 274
3 274 273 276
3 276 275 278
3 278 277 173
3 270 279 271
3 271 280 273
3 273 281 275
3 275 282 277
3 277 283 181
3 290 285 279
3 285 286 280
3 281 286 282
3 287 288 282
3 288 185 283
3 294 289 290
3 289 291 285
3 291 292 286
3 292 293 287
3 293 191 288
3 761 247 294
3 247 249 289
3 249 251 291
3 251 253 292
3 253 148 293
3 754 295 240
3 240 296 242
3 242 297 243
3 243 298 244
3 244 299 141
3 295 300 296
3 296 301 297
3 297 302 298
3 298 303 299
3 299 304 201
3 300 305 301
3 301 306 302
3 307 308 302
3 308 309 303
3 309 310 304
3 315 311 305
3 311 312 306
3 312 313 307
3 313 314 308
3 314 211 309
3 732 272 315
3 272 274 311
3 274 276 312
3 276 278 313
3 278 173 314
3 384 316 318
3 318 317 320
3 320 319 322
3 322 321 324
3 323 325 324
3 316 327 317
3 317 328 319
3 319 329 321
3 321 330 323
3 331 332 323
3 327 333 328
3 328 334 329
3 329 335 330
3 330 336 331
3 337 338 331
3 333 339 334
3 334 340 335
3 335 341 336
3 336 342 337
3 343 344 337
3 339 345 340
3 340 346 341
3 341 347 342
3 342 348 343
3 349 350 343
3 357 351 345
3 351 352 346
3 352 353 347
3 353 354 348
3 349 354 350
3 363 356 357
3 356 358 351
3 358 359 352
3 359 360 353
3 354 360 355
3 369 362 363
3 362 364 356
3 364 365 358
3 365 366 359
3 360 366 361
3 374 368 369
3 368 370 362
3 370 371 364
3 371 372 365
3 366 372 367
3 384 318 374
3 318 320 368
3 320 322 370
3 322 324 371
3 372 324 373
3 823 375 377
3 377 376 379
3 379 378 381
3 381 380 383
3 383 382 384
3 375 385 376
3 376 386 378
3 378 387 380
3 380 388 382
3 382 389 316
3 385 390 386
3 386 391 387
3 387 392 388
3 388 393 389
3 389 394 327
3 390 395 391
3 391 396 392
3 392 397 393
3 393 398 394
3 394 399 333
3 395 148 396
3 396 400 397
3 397 401 398
3 398 402 399
3 399 403 339
3 409 404 148
3 404 405 400
3 405 406 401
3 406 407 402
3 407 357 403
3 414 408 409
3 408 410 404
3 410 411 405
3 411 412 406
3 412 363 407
3 419 413 414
3 413 415 408
3 415 416 410
3 416 417 411
3 417 369 412
3 423 418 419
3 418 420 413
3 420 421 415
3 421 422 416
3 422 374 417
3 823 377 423
3 377 379 418
3 379 381 420
3 381 383 421
3 383 384 422
3 492 424 426
3 426 425 428
3 427 429 428
3 429 431 430
3 431 433 432
3 424 435 425
3 425 436 427
3 437 438 427
3 438 439 429
3 439 440 431
3 435 441 436
3 442 443 436
3 443 444 437
3 444 445 438
3 445 446 439
3 441 447 442
3 448 449 442
3 449 450 443
3 450 451 444
3 451 452 445
3 447 453 448
3 454 455 448
3 455 456 449
3 456 457 450
3 457 458 451
3 465 459 453
3 454 459 455
3 455 460 456
3 456 461 457
3 457 462 458
3 471 464 465
3 459 464 460
3 460 466 461
3 461 467 462
3 462 468 463
3 477 470 471
3 464 470 466
3 466 472 467
3 467 473 468
3 468 474 469
3 482 476 477
3 476 478 470
3 472 478 473
3 473 479 474
3 474 480 475
3 492 426 482
3 426 428 476
3 478 428 479
3 479 430 480
3 480 432 481
3 494 483 485
3 483 486 484
3 486 488 487
3 489 488 491
3 491 490 492
3 499 493 494
3 493 495 483
3 495 496 486
3 488 496 490
3 490 497 424
3 504 498 499
3 498 500 493
3 495 500 496
3 496 501 497
3 497 502 435
3 509 503 504
3 503 505 498
3 500 505 501
3 501 506 502
3 502 507 441
3 824 508 509
3 508 510 503
3 505 510 506
3 506 511 507
3 507 512 447
3 824 513 508
3 508 514 510
3 515 516 510
3 516 517 511
3 517 465 512
3 513 518 514
3 514 519 515
3 520 521 515
3 521 522 516
3 522 471 517
3 518 523 519
3 519 524 520
3 525 526 520
3 526 527 521
3 527 477 522
3 523 528 524
3 524 529 525
3 525 530 526
3 531 532 526
3 532 482 527
3 528 485 529
3 529 484 530
3 530 487 531
3 489 491 531
3 491 492 532
3 544 533 535
3 534 533 537
3 537 536 539
3 538 540 539
3 549 543 544
3 533 543 536
3 536 545 538
3 546 547 538
3 649 548 549
3 543 548 545
3 545 550 546
3 546 551 547
3 649 553 548
3 554 555 548
3 555 556 550
3 551 556 552
3 553 558 554
3 559 560 554
3 560 561 555
3 556 561 557
3 573 563 565
3 564 563 567
3 567 566 569
3 568 570 569
3 578 572 573
3 563 572 566
3 566 574 568
3 575 576 568
3 679 577 578
3 577 579 572
3 574 579 575
3 580 581 575
3 679 582 577
3 583 584 577
3 584 585 579
3 580 585 581
3 582 535 583
3 534 537 583
3 537 539 584
3 585 539 586
3 597 587 589
3 588 587 591
3 591 590 593
3 592 594 593
3 602 596 597
3 587 596 590
3 590 598 592
3 599 600 592
3 704 601 602
3 596 601 598
3 598 603 599
3 599 604 600
3 704 606 601
3 607 608 601
3 608 609 603
3 604 609 605
3 606 565 607
3 564 567 607
3 567 569 608
3 609 569 610
3 616 611 558
3 559 611 560
3 560 612 561
3 613 614 561
3 621 615 616
3 611 615 612
3 612 617 613
3 618 619 613
3 724 620 621
3 620 622 615
3 617 622 618
3 623 624 618
3 724 625 620
3 626 627 620
3 627 628 622
3 623 628 624
3 625 589 626
3 588 591 626
3 591 593 627
3 628 593 629
3 640 630 632
3 630 633 631
3 633 635 634
3 635 637 636
3 637 544 638
3 645 639 640
3 639 641 630
3 641 642 633
3 642 643 635
3 643 549 637
3 825 644 645
3 644 646 639
3 646 647 641
3 647 648 642
3 643 648 549
3 825 650 644
3 644 651 646
3 646 652 647
3 647 653 648
3 648 654 649
3 650 655 651
3 651 656 652
3 652 657 653
3 653 658 654
3 654 659 553
3 670 660 662
3 660 663 661
3 663 665 664
3 665 667 666
3 667 573 668
3 675 669 670
3 669 671 660
3 671 672 663
3 672 673 665
3 673 578 667
3 826 674 675
3 674 676 669
3 671 676 672
3 677 678 672
3 678 679 673
3 826 680 674
3 674 681 676
3 676 682 677
3 677 683 678
3 678 684 679
3 680 632 681
3 681 631 682
3 682 634 683
3 683 636 684
3 684 638 582
3 695 685 687
3 685 688 686
3 688 690 689
3 690 692 691
3 692 597 693
3 827 694 695
3 694 696 685
3 696 697 688
3 697 698 690
3 698 602 692
3 827 699 694
3 694 700 696
3 701 702 696
3 702 703 697
3 698 703 602
3 699 705 700
3 700 706 701
3 701 707 702
3 702 708 703
3 703 709 704
3 705 662 706
3 706 661 707
3 707 664 708
3 708 666 709
3 709 668 606
3 715 710 655
3 710 711 656
3 711 712 657
3 712 713 658
3 713 616 659
3 720 714 715
3 714 716 710
3 716 717 711
3 717 718 712
3 718 621 713
3 828 719 720
3 719 721 714
3 721 722 716
3 722 723 717
3 718 723 621
3 828 725 719
3 719 726 721
3 721 727 722
3 722 728 723
3 723 729 724
3 725 687 726
3 726 686 727
3 727 689 728
3 728 691 729
3 729 693 625
3 741 730 732
3 730 733 731
3 733 735 734
3 735 737 736
3 305 740 741
3 740 742 730
3 742 743 733
3 743 744 735
3 300 745 305
3 745 746 740
3 746 747 742
3 747 748 743
3 300 749 745
3 745 750 746
3 746 751 747
3 747 752 748
3 749 754 750
3 750 755 751
3 751 756 752
3 752 757 753
3 769 759 761
3 759 762 760
3 762 764 763
3 764 766 765
3 290 768 769
3 768 770 759
3 770 771 762
3 771 772 764
3 279 773 290
3 773 774 768
3 774 775 770
3 775 776 771
3 279 777 773
3 773 778 774
3 774 779 775
3 775 780 776
3 777 732 778
3 778 731 779
3 779 734 780
3 780 736 781
3 792 782 784
3 782 785 783
3 785 787 786
3 787 789 788
3 259 791 792
3 791 793 782
3 793 794 785
3 794 795 787
3 254 796 259
3 796 797 791
3 793 797 794
3 798 799 794
3 254 800 796
3 796 801 797
3 797 802 798
3 798 803 799
3 800 761 801
3 801 760 802
3 802 763 803
3 803 765 804
3 810 805 754
3 805 806 755
3 806 807 756
3 807 808 757
3 236 809 810
3 809 811 805
3 811 812 806
3 812 813 807
3 236 225 809
3 809 814 811
3 811 815 812
3 816 817 812
3 225 818 814
3 814 819 815
3 815 820 816
3 816 821 817
3 818 784 819
3 819 783 820
3 820 786 821
3 821 788 822
