ply
format ascii 1.0
comment Created by Blender 2.73 (sub 0) - www.blender.org, source file: ''
element vertex 128
property float x
property float y
property float z
element face 256
property list uchar uint vertex_indices
end_header
-147.820740 0.000000 -61.229340
-139.161591 -22.627419 -57.642605
-150.627411 -22.627417 0.000000
-118.256592 -32.000000 -48.983471
-128.000000 -32.000000 0.000000
-97.351578 -22.627419 -40.324333
-105.372581 -22.627417 0.000000
-88.692444 -0.000000 -36.737602
-97.351578 22.627419 -40.324333
-105.372581 22.627417 0.000000
-118.256592 32.000000 -48.983471
-128.000000 32.000000 0.000000
-139.161591 22.627419 -57.642605
-150.627411 22.627417 0.000000
-113.137085 0.000000 -113.137093
-106.509651 -22.627417 -106.509666
-90.509659 -32.000000 -90.509674
-74.509666 -22.627417 -74.509674
-67.882240 -0.000000 -67.882248
-74.509666 22.627417 -74.509674
-90.509659 32.000000 -90.509674
-106.509651 22.627417 -106.509666
-61.229378 0.000000 -147.820709
-57.642643 -22.627415 -139.161560
-48.983501 -31.999996 -118.256561
-40.324364 -22.627415 -97.351562
-36.737629 -0.000000 -88.692429
-40.324364 22.627415 -97.351562
-48.983501 31.999996 -118.256561
-57.642643 22.627415 -139.161560
-0.000008 0.000000 -160.000015
-0.000023 -22.627417 -150.627411
-0.000011 -32.000000 -128.000000
-0.000008 -22.627417 -105.372589
-0.000011 -0.000000 -96.000000
-0.000008 22.627417 -105.372589
-0.000011 32.000000 -128.000000
-0.000023 22.627417 -150.627411
61.229370 0.000000 -147.820709
57.642635 -22.627419 -139.161575
48.983490 -32.000000 -118.256577
40.324356 -22.627419 -97.351570
36.737621 -0.000000 -88.692436
40.324356 22.627419 -97.351570
48.983490 32.000000 -118.256577
57.642635 22.627419 -139.161575
113.137100 0.000000 -113.137047
106.509682 -22.627415 -106.509636
90.509689 -32.000000 -90.509644
74.509682 -22.627415 -74.509651
67.882263 -0.000000 -67.882233
74.509682 22.627415 -74.509651
90.509689 32.000000 -90.509644
106.509682 22.627415 -106.509636
147.820709 0.000000 -61.229359
139.161575 -22.627415 -57.642620
118.256569 -31.999998 -48.983486
97.351570 -22.627415 -40.324348
88.692421 -0.000000 -36.737614
97.351570 22.627415 -40.324348
118.256569 31.999998 -48.983486
139.161575 22.627415 -57.642620
160.000000 0.000000 -0.000014
150.627411 -22.627417 -0.000013
128.000000 -32.000000 -0.000011
105.372581 -22.627417 -0.000009
96.000000 -0.000000 -0.000008
105.372581 22.627417 -0.000009
128.000000 32.000000 -0.000011
150.627411 22.627417 -0.000013
147.820740 0.000000 61.229290
139.161591 -22.627417 57.642559
118.256592 -32.000000 48.983433
97.351585 -22.627417 40.324303
88.692444 -0.000000 36.737576
97.351585 22.627417 40.324303
118.256592 32.000000 48.983433
139.161591 22.627417 57.642559
113.137100 0.000000 113.137047
106.509682 -22.627415 106.509636
90.509689 -32.000000 90.509644
74.509682 -22.627415 74.509651
67.882263 -0.000000 67.882233
74.509682 22.627415 74.509651
90.509689 32.000000 90.509644
106.509682 22.627415 106.509636
61.229370 0.000000 147.820709
57.642635 -22.627419 139.161575
48.983490 -32.000000 118.256577
40.324356 -22.627419 97.351570
36.737621 -0.000000 88.692436
40.324356 22.627419 97.351570
48.983490 32.000000 118.256577
57.642635 22.627419 139.161575
-0.000008 0.000000 160.000015
-0.000023 -22.627417 150.627411
-0.000011 -32.000000 128.000000
-0.000008 -22.627417 105.372589
-0.000011 -0.000000 96.000000
-0.000008 22.627417 105.372589
-0.000011 32.000000 128.000000
-0.000023 22.627417 150.627411
-61.229378 0.000000 147.820709
-57.642643 -22.627415 139.161560
-48.983501 -31.999996 118.256561
-40.324364 -22.627415 97.351562
-36.737629 -0.000000 88.692429
-40.324364 22.627415 97.351562
-48.983501 31.999996 118.256561
-57.642643 22.627415 139.161560
-113.137024 0.000000 113.137154
-106.509605 -22.627417 106.509735
-90.509621 -32.000000 90.509720
-74.509628 -22.627417 74.509712
-67.882217 -0.000000 67.882294
-74.509628 22.627417 74.509712
-90.509621 32.000000 90.509720
-106.509605 22.627417 106.509735
-147.820709 0.000000 61.229408
-139.161560 -22.627417 57.642670
-118.256561 -32.000000 48.983528
-97.351562 -22.627417 40.324383
-88.692413 -0.000000 36.737644
-97.351562 22.627417 40.324383
-118.256561 32.000000 48.983528
-139.161560 22.627417 57.642670
-160.000000 0.000000 0.000000
-96.000000 -0.000000 0.000000
3 0 1 2
3 2 1 3
3 4 3 5
3 6 5 7
3 7 8 9
3 8 10 11
3 10 12 13
3 13 12 0
3 14 15 1
3 15 16 3
3 16 17 5
3 17 18 7
3 7 18 19
3 8 19 20
3 10 20 21
3 12 21 14
3 22 23 15
3 23 24 16
3 24 25 17
3 25 26 18
3 18 26 27
3 19 27 28
3 20 28 29
3 21 29 22
3 22 30 31
3 31 32 24
3 24 32 33
3 25 33 34
3 34 35 27
3 35 36 28
3 28 36 37
3 37 30 22
3 30 38 39
3 31 39 40
3 40 41 33
3 33 41 42
3 42 43 35
3 35 43 44
3 44 45 37
3 45 38 30
3 38 46 47
3 47 48 40
3 48 49 41
3 49 50 42
3 42 50 51
3 43 51 52
3 44 52 53
3 53 46 38
3 54 55 47
3 47 55 56
3 56 57 49
3 57 58 50
3 58 59 51
3 51 59 60
3 60 61 53
3 53 61 54
3 62 63 55
3 55 63 64
3 56 64 65
3 57 65 66
3 66 67 59
3 67 68 60
3 68 69 61
3 61 69 62
3 70 71 63
3 71 72 64
3 72 73 65
3 73 74 66
3 66 74 75
3 67 75 76
3 68 76 77
3 69 77 70
3 78 79 71
3 71 79 80
3 80 81 73
3 81 82 74
3 82 83 75
3 75 83 84
3 84 85 77
3 77 85 78
3 86 87 79
3 79 87 88
3 80 88 89
3 81 89 90
3 90 91 83
3 91 92 84
3 92 93 85
3 85 93 86
3 94 95 87
3 95 96 88
3 88 96 97
3 97 98 90
3 90 98 99
3 99 100 92
3 92 100 101
3 93 101 94
3 102 103 95
3 95 103 104
3 104 105 97
3 105 106 98
3 98 106 107
3 99 107 108
3 108 109 101
3 101 109 102
3 102 110 111
3 103 111 112
3 104 112 113
3 105 113 114
3 114 115 107
3 115 116 108
3 116 117 109
3 117 110 102
3 110 118 119
3 119 120 112
3 120 121 113
3 113 121 122
3 122 123 115
3 123 124 116
3 116 124 125
3 125 118 110
3 126 2 119
3 119 2 4
3 4 6 121
3 6 127 122
3 127 9 123
3 123 9 11
3 11 13 125
3 125 13 126
3 126 0 2
3 4 2 3
3 6 4 5
3 127 6 7
3 127 7 9
3 9 8 11
3 11 10 13
3 126 13 0
3 0 14 1
3 1 15 3
3 3 16 5
3 5 17 7
3 8 7 19
3 10 8 20
3 12 10 21
3 0 12 14
3 14 22 15
3 15 23 16
3 16 24 17
3 17 25 18
3 19 18 27
3 20 19 28
3 21 20 29
3 14 21 22
3 23 22 31
3 23 31 24
3 25 24 33
3 26 25 34
3 26 34 27
3 27 35 28
3 29 28 37
3 29 37 22
3 31 30 39
3 32 31 40
3 32 40 33
3 34 33 42
3 34 42 35
3 36 35 44
3 36 44 37
3 37 45 30
3 39 38 47
3 39 47 40
3 40 48 41
3 41 49 42
3 43 42 51
3 44 43 52
3 45 44 53
3 45 53 38
3 46 54 47
3 48 47 56
3 48 56 49
3 49 57 50
3 50 58 51
3 52 51 60
3 52 60 53
3 46 53 54
3 54 62 55
3 56 55 64
3 57 56 65
3 58 57 66
3 58 66 59
3 59 67 60
3 60 68 61
3 54 61 62
3 62 70 63
3 63 71 64
3 64 72 65
3 65 73 66
3 67 66 75
3 68 67 76
3 69 68 77
3 62 69 70
3 70 78 71
3 72 71 80
3 72 80 73
3 73 81 74
3 74 82 75
3 76 75 84
3 76 84 77
3 70 77 78
3 78 86 79
3 80 79 88
3 81 80 89
3 82 81 90
3 82 90 83
3 83 91 84
3 84 92 85
3 78 85 86
3 86 94 87
3 87 95 88
3 89 88 97
3 89 97 90
3 91 90 99
3 91 99 92
3 93 92 101
3 86 93 94
3 94 102 95
3 96 95 104
3 96 104 97
3 97 105 98
3 99 98 107
3 100 99 108
3 100 108 101
3 94 101 102
3 103 102 111
3 104 103 112
3 105 104 113
3 106 105 114
3 106 114 107
3 107 115 108
3 108 116 109
3 109 117 102
3 111 110 119
3 111 119 112
3 112 120 113
3 114 113 122
3 114 122 115
3 115 123 116
3 117 116 125
3 117 125 110
3 118 126 119
3 120 119 4
3 120 4 121
3 121 6 122
3 122 127 123
3 124 123 11
3 124 11 125
3 118 125 126
