ply
format ascii 1.0
comment Created by Blender 2.73 (sub 0) - www.blender.org, source file: ''
element vertex 640
property float x
property float y
property float z
element face 1280
property list uchar uint vertex_indices
end_header
41.397816 19.979782 -10.674736
40.381916 6.411254 -33.618694
30.952637 -12.461705 -21.179028
63.999992 27.481556 -16.394030
62.838779 12.776642 -41.036007
86.602165 18.885006 -12.509924
85.168297 2.905701 -39.086002
95.964294 -0.774126 -1.297678
94.290138 -17.419306 -28.910969
84.860863 -36.292267 -16.471300
62.403996 -42.657654 -9.053988
86.602165 -19.979786 10.674728
40.074482 -32.786713 -11.003994
63.999992 -27.481560 16.394022
41.397816 -18.885010 12.509916
37.319714 -5.922390 -55.833160
27.510403 -24.446688 -43.165359
59.549721 -0.949092 -64.829727
81.178391 -12.440085 -64.885010
89.535942 -33.664101 -55.966614
79.726631 -52.188400 -43.298813
57.496620 -57.161697 -34.302238
35.867954 -45.670704 -34.246960
32.587856 -16.265955 -76.820740
21.990089 -34.272430 -64.041870
54.449883 -13.079127 -87.391510
74.769691 -26.578749 -89.561974
81.644218 -48.856926 -82.060699
71.046448 -66.863403 -69.281830
49.184418 -70.050232 -58.711060
28.864613 -56.550606 -56.540600
26.551334 -24.161999 -96.043861
14.867826 -41.366764 -83.107986
47.686630 -23.133778 -108.376228
65.892952 -38.884426 -112.880951
70.505272 -62.187420 -106.919220
58.821758 -79.392189 -93.983345
37.686462 -80.420410 -81.650978
19.480148 -64.669762 -77.146255
19.510460 -29.479113 -112.999443
6.739189 -45.605675 -99.707565
39.235546 -30.720640 -127.464050
54.359760 -48.602985 -134.628220
56.023544 -72.650917 -130.295273
43.252274 -88.777473 -117.003380
23.527187 -87.535942 -102.538773
8.402972 -69.653603 -95.374611
11.645385 -32.336044 -127.360733
-1.866942 -47.289337 -113.444504
29.004395 -35.469501 -144.351669
40.041416 -54.854172 -154.464249
38.291111 -79.134781 -151.774658
24.778782 -94.088081 -137.858429
7.419772 -90.954620 -120.867485
-3.617247 -71.569954 -110.754913
2.969434 -32.929615 -139.090897
-10.721284 -46.905811 -124.357391
16.995436 -37.038456 -158.743729
23.140480 -56.825436 -171.803543
17.804886 -80.699615 -170.620102
4.114170 -94.675812 -155.886612
-9.911834 -90.566971 -136.233780
-16.056877 -70.779991 -123.173943
-6.667723 -31.329172 -148.370804
-19.997591 -44.757881 -132.819916
3.407983 -35.203686 -170.355194
4.327317 -54.111786 -185.894943
-4.448257 -76.977364 -185.887085
-17.778126 -90.406075 -170.336197
-27.853832 -86.531563 -148.351807
-28.773167 -67.623459 -132.812057
-17.422459 -27.403023 -155.334763
-30.045601 -40.767887 -139.151993
-11.371797 -29.951603 -178.930099
-15.438008 -46.920704 -196.116165
-27.239162 -68.370064 -196.825607
-39.862305 -81.734924 -180.642838
-45.912968 -79.186348 -157.047501
-41.846756 -62.217243 -139.861435
-29.213078 -21.002724 -159.894577
-40.980518 -34.700516 -143.349396
-26.842686 -21.511492 -184.266037
-35.257885 -35.928791 -202.187286
-49.529171 -55.809158 -203.160309
-61.296612 -69.506950 -186.615128
-63.667004 -68.998184 -162.243668
-55.251804 -54.580883 -144.322418
-41.642475 -12.220841 -161.826797
-52.510380 -26.538109 -145.190994
-42.458569 -10.333415 -186.232056
-54.480595 -21.981461 -204.110519
-70.666214 -40.341713 -204.989212
-81.534119 -54.658978 -188.353409
-80.718025 -56.546406 -163.948151
-68.695999 -44.898357 -146.069687
-54.118977 -1.479087 -160.953644
-64.068542 -16.635902 -144.487854
-57.673817 2.959006 -184.776154
-72.650688 -5.921397 -202.000473
-90.276337 -22.918278 -202.536835
-100.225906 -38.075096 -186.071045
-96.671066 -42.513187 -162.248535
-81.694191 -33.632786 -145.024216
-66.009018 10.545446 -157.246964
-75.011505 -5.649500 -141.230591
-71.968498 17.621553 -179.924240
-89.398964 11.433733 -195.978363
-108.089890 -4.393271 -196.005066
-117.092377 -20.588217 -179.988693
-111.132896 -27.664324 -157.311417
-93.702431 -21.476503 -141.257294
-76.732697 23.044779 -150.850754
-84.746536 5.614153 -135.625870
-84.862663 32.840862 -171.774078
-104.374023 29.263994 -186.139252
-123.837280 14.409451 -185.531357
-131.851120 -3.021173 -170.306473
-123.721153 -12.817259 -149.383148
-104.209793 -9.240389 -135.017975
-85.814438 35.203754 -142.063492
-92.800552 16.350721 -128.077698
-95.925659 47.781834 -160.486313
-117.211205 46.716888 -172.554321
-137.202286 32.632751 -171.198242
-144.188400 13.779717 -157.212448
-134.077194 1.201638 -138.789627
-112.791634 2.266583 -126.721603
-92.916603 46.320587 -131.285660
-98.866699 25.914614 -119.118553
-104.783012 61.628849 -146.275345
-127.514732 62.872032 -155.306885
-147.795853 49.321892 -153.089706
-153.745941 28.915918 -140.922623
-141.879532 13.607654 -125.932922
-119.147804 12.364472 -116.901382
-97.853516 55.910774 -118.902550
-102.825325 33.960007 -109.243858
-111.120651 73.617638 -129.404724
-134.855026 76.708153 -134.598343
-155.153366 63.371948 -131.441071
-160.125168 41.421181 -121.782372
-146.858047 23.714319 -111.280205
-123.123665 20.623800 -106.086586
-100.542709 63.719566 -105.103775
-104.679855 40.460384 -98.643127
-114.684639 83.056816 -110.195114
-138.821503 87.144630 -110.934723
-158.814255 73.588440 -106.889328
-162.951401 50.329262 -100.428680
-148.809464 30.992014 -95.337341
-124.672592 26.904192 -94.597733
-100.870430 69.550751 -89.792572
-104.376991 45.468670 -87.035294
-115.274338 89.345413 -89.054909
-139.151093 93.257210 -85.254410
-158.514023 78.994667 -80.617355
-162.020584 54.912586 -77.860077
-147.616684 35.117924 -78.597740
-123.739914 31.206129 -82.398239
-98.588104 73.020851 -72.807053
-101.675339 48.750076 -73.922302
-112.729965 92.007332 -66.532753
-135.816818 94.587486 -58.774807
-154.324677 79.249908 -54.077702
-157.411911 54.979141 -55.192951
-143.270065 35.992661 -61.467247
-120.183212 33.412498 -69.225197
-93.391251 73.552254 -54.324303
-96.264053 49.705784 -59.113674
-106.927193 90.767281 -43.357700
-128.942719 91.266533 -32.637947
-146.541412 74.757553 -28.444530
-149.414215 50.911083 -33.233902
-135.878281 33.696056 -44.200504
-113.862755 33.196804 -54.920258
-85.096138 70.660912 -35.017159
-87.988716 47.681347 -42.980679
-97.801476 85.652405 -20.399529
-118.662102 83.874001 -7.690601
-135.458160 66.367477 -4.335089
-138.350739 43.387909 -12.298608
-125.645393 28.396420 -26.916237
-104.784767 30.174822 -39.625164
-73.737251 64.247581 -15.847858
-76.927879 42.328632 -26.298937
-85.408661 77.039032 1.472714
-105.105148 73.209938 15.516626
-121.288795 55.003323 18.057146
-124.479424 33.084373 7.606069
-112.808014 20.292921 -9.714504
-93.111526 24.122019 -23.758417
-59.564758 54.679722 2.258197
-63.326244 33.778744 -9.942033
-69.986526 65.586319 21.552708
-88.486626 60.109608 36.639038
-104.227943 41.457760 38.679817
-107.989433 20.556782 26.479588
-97.567657 9.650180 7.185075
-79.067558 15.126899 -7.901254
-42.993999 42.693417 18.630018
-47.505459 22.617031 5.347290
-51.969654 52.107502 39.382317
-69.174599 45.344646 55.447773
-84.530418 26.366444 57.415459
-89.041878 6.290057 44.132732
-80.066223 -3.124030 23.380432
-62.861275 3.638824 7.314977
-24.536907 29.243464 32.903652
-29.808155 9.755752 19.036848
-31.944555 37.465530 54.752445
-47.691795 29.605574 71.784500
-62.554111 10.267854 74.022667
-67.825356 -9.219858 60.155857
-60.417713 -17.441923 38.307064
-44.670471 -9.581968 21.275015
-4.741352 15.375931 44.962177
-10.590499 -3.711455 30.773994
-10.566657 22.514849 67.654625
-24.654028 13.523411 85.558411
-38.751278 -6.331316 88.185730
-44.600422 -25.418699 73.997551
-38.775120 -32.557617 51.305103
-24.687746 -23.566179 33.401321
15.832841 2.120294 54.832821
9.731367 -16.645811 40.325909
11.525611 8.059209 78.199951
-0.667209 -2.308005 96.739136
-13.603230 -22.908369 99.590378
-19.704702 -41.674477 85.083466
-15.397473 -47.613392 61.716335
-3.204653 -37.246178 43.177151
36.597523 -9.620751 62.594006
30.604008 -27.998428 47.554592
33.771160 -5.196012 86.516357
23.780567 -17.316166 105.308250
12.478095 -38.881393 107.961655
6.484583 -57.259068 92.922241
9.310944 -61.683811 68.999893
19.301537 -49.563656 50.207996
56.918911 -19.182859 68.315994
51.287571 -36.956623 52.434345
55.717587 -16.681707 92.650047
48.387318 -30.918306 111.181961
39.222073 -53.553051 113.055977
33.590733 -71.326820 97.174332
34.792057 -73.827965 72.840279
42.122326 -59.591366 54.308361
76.155632 -26.218897 72.032463
70.906227 -43.089607 55.071674
77.031525 -25.955276 96.507111
73.020821 -42.453175 114.158714
66.472939 -66.048347 114.647194
61.223534 -82.919052 97.686409
60.347637 -83.182671 73.211761
64.358345 -66.684776 55.560154
93.774895 -30.694616 73.743050
88.644905 -46.427151 55.687130
97.473434 -32.637024 97.875870
97.573959 -51.116531 113.948921
94.017601 -75.308098 112.546829
88.887611 -91.040627 94.490913
85.189072 -89.098228 70.358093
85.088547 -70.618721 54.285038
109.507240 -32.777603 73.441093
104.050209 -47.368927 54.542431
116.822678 -36.360363 96.538574
121.711250 -56.018482 110.304672
121.309288 -80.236504 106.675415
115.852257 -94.827827 87.776756
108.536819 -91.245064 64.679276
103.648247 -71.586945 50.913170
123.424896 -32.643005 71.113876
117.231491 -46.382282 51.807926
134.794312 -36.810665 92.402649
144.679703 -56.443905 103.203583
147.290344 -80.041840 97.189644
141.096939 -93.781120 77.883698
129.727509 -89.613457 56.594921
119.842125 -69.980217 45.793983
135.788559 -30.288698 66.705383
128.676010 -43.644920 47.447445
151.013885 -33.826321 85.560623
165.433197 -52.185493 92.968018
170.599869 -74.611664 84.588409
163.487320 -87.967888 65.330475
148.261993 -84.430267 46.475231
133.842682 -66.071098 39.067841
146.705887 -25.546671 60.161789
138.733261 -38.984390 41.301506
165.056244 -27.474379 76.267487
183.034958 -43.638287 80.184097
190.110306 -64.569801 69.617332
182.137680 -78.007515 50.757050
163.787323 -76.079811 34.651356
145.808609 -59.915897 30.734741
155.949081 -18.325741 51.571774
147.303970 -32.202579 33.336075
176.504059 -18.061956 64.885986
196.928085 -31.565746 65.479439
205.257034 -50.926777 53.004478
196.611923 -64.803619 34.768780
176.056946 -65.067406 21.454567
155.632919 -51.563610 20.861120
163.082077 -8.828677 41.238247
153.981003 -23.403133 23.785431
184.991486 -6.102756 51.839775
206.875000 -16.822180 49.379784
215.913528 -34.707653 35.299301
206.812454 -49.282112 17.846485
184.903046 -52.008034 7.244956
163.019531 -41.288609 9.704948
167.678329 2.424980 29.631161
158.338440 -13.056010 13.109944
190.226807 7.733507 37.582947
212.775284 -0.240098 32.307251
222.115173 -16.825001 16.894506
212.775284 -32.305992 0.373290
190.226807 -37.614521 -7.578496
167.678329 -29.640913 -2.302799
169.451508 14.700405 17.305021
160.111618 -1.884499 1.892277
191.999985 22.674011 22.580717
214.548462 17.365484 14.628932
223.888351 1.884493 -1.892285
214.548462 -14.700411 -17.305029
191.999985 -22.674015 -22.580725
169.451508 -17.365488 -14.628940
168.299072 27.173716 4.835184
159.260544 9.288240 -9.245298
190.182587 37.893139 7.295175
212.091995 35.167217 -3.306353
221.193069 20.592760 -20.759169
212.154541 2.707286 -34.839649
190.271027 -8.012138 -37.299641
168.361618 -5.286217 -26.698114
164.299683 39.054317 -7.233218
155.970734 19.693293 -19.708172
184.723709 52.558109 -7.826664
205.278687 52.294323 -21.140879
213.923798 38.417484 -39.376575
205.594849 19.056459 -51.851528
185.170822 5.552668 -51.258083
164.615845 5.816453 -37.943867
157.667343 49.703476 -18.445606
150.591980 28.771971 -29.012371
175.646042 65.867378 -22.362219
193.996399 67.795082 -38.467915
201.969025 54.357372 -57.328197
194.893661 33.425865 -67.894958
176.914963 17.261961 -63.978352
158.564606 15.334252 -47.872654
148.626526 58.719883 -28.509342
143.459854 36.293713 -36.888943
163.045837 77.079048 -35.916733
178.271164 80.616676 -54.771969
185.383713 67.260452 -74.029907
180.217041 44.834286 -82.409508
165.797729 26.475115 -75.002121
150.572403 22.937494 -56.146885
137.219147 65.896439 -37.313133
134.608505 42.298508 -43.327076
147.104538 85.529671 -48.114071
158.473969 89.697334 -69.402840
164.667374 75.958061 -88.708786
162.056732 52.360130 -94.722733
152.171341 32.726894 -83.921791
140.801910 28.559233 -62.633018
123.229416 70.996277 -44.803040
123.631378 46.778267 -48.432301
128.117981 90.654396 -58.569145
135.433426 94.237160 -81.666618
140.890457 79.645836 -100.565277
141.292404 55.427822 -104.194534
136.403839 35.769703 -90.428436
129.088394 32.186943 -67.330956
106.437042 73.553795 -50.776989
109.993401 49.362232 -52.179081
106.537567 92.033302 -66.850037
110.236107 93.975700 -90.982857
115.366096 78.243172 -109.038773
118.922455 54.051613 -110.440865
118.821930 35.572105 -94.367813
115.123390 33.629700 -70.234993
87.000008 72.983406 -54.817707
93.547897 49.388248 -54.329227
82.989311 89.481308 -72.469307
83.865211 89.217690 -96.943954
89.114609 72.346977 -113.904739
95.662498 48.751816 -113.416260
99.673195 32.253918 -95.764656
98.797295 32.517540 -71.290009
65.557091 68.905495 -56.422642
74.722336 46.270752 -54.548626
58.226814 83.142090 -74.954552
57.025486 80.640938 -99.288605
62.656830 62.867180 -115.170250
71.822075 40.232437 -113.296234
79.152351 25.995840 -94.764320
80.353676 28.496992 -70.430267
43.015308 61.378574 -55.195042
54.317776 39.813347 -52.541637
33.024715 73.498726 -73.986931
30.198353 69.073982 -97.909279
36.191868 50.696312 -112.948692
47.494335 29.131088 -110.295288
57.484928 17.010933 -91.503395
60.311291 21.435673 -67.581047
20.272331 50.908989 -50.977139
33.208351 30.308626 -48.125896
8.079509 61.276203 -69.516319
3.772279 55.337288 -92.883446
9.873753 36.571182 -107.390358
22.809772 15.970819 -104.539116
35.002594 5.603604 -85.999931
39.309826 11.542520 -62.632809
-1.952790 38.321880 -43.879608
12.144458 18.467157 -41.252281
-16.040161 47.313316 -61.783390
-21.865465 40.174400 -84.475830
-16.016319 21.087015 -98.664017
-1.919072 1.232289 -96.036682
12.168300 -7.759147 -78.132904
17.993605 -0.620231 -55.440464
-23.160225 24.615152 -34.225132
-8.297910 5.277430 -31.986963
-38.907467 32.475105 -51.257179
-46.315113 24.253042 -73.105965
-41.043865 4.765328 -86.972771
-26.181549 -14.572392 -84.734604
-10.434310 -22.432348 -67.702553
-3.026661 -14.210281 -45.853771
-43.024467 10.841105 -22.463366
-27.668650 -8.137102 -20.495678
-60.229420 17.603960 -38.528820
-69.205070 8.189871 -59.281116
-64.693611 -11.886515 -72.563843
-49.337799 -30.864721 -70.596153
-32.132847 -37.627575 -54.530704
-23.157192 -28.213488 -33.778408
-61.308411 -2.000388 -9.111237
-45.567089 -20.652233 -7.070458
-79.808502 3.476331 -24.197567
-90.230278 -7.430271 -43.492077
-86.468788 -28.331249 -55.692307
-70.727470 -46.983097 -53.651527
-52.227371 -52.459816 -38.565197
-41.805603 -41.553215 -19.270687
-77.780281 -13.074298 5.268622
-61.596642 -31.280914 7.809142
-97.476768 -9.245200 -8.775290
-109.148178 -22.036654 -26.095863
-105.957542 -43.955601 -36.546940
-89.773903 -62.162220 -34.006420
-70.077415 -65.991325 -19.962509
-58.406010 -53.199863 -2.641936
-92.169670 -21.816389 20.088169
-75.373619 -39.322918 23.443682
-113.030296 -20.037987 7.379241
-125.735634 -35.029480 -7.238388
-122.843056 -58.009052 -15.201906
-106.047005 -75.515587 -11.846395
-85.186378 -77.293983 0.862534
-72.481041 -62.302490 15.480162
-104.183456 -27.989555 34.799030
-86.584755 -44.498535 38.992447
-126.198975 -28.488808 24.079279
-139.734924 -45.703838 13.112674
-136.862122 -69.550316 8.323304
-119.263412 -86.059288 12.516719
-97.247894 -85.560036 23.236471
-83.711952 -68.345009 34.203075
-113.585938 -31.644178 49.004292
-95.078064 -46.981758 53.701397
-136.672791 -34.224342 41.246338
-150.814636 -53.210823 34.972042
-147.727402 -77.481598 33.856792
-129.219543 -92.819176 38.553898
-106.132690 -90.239021 46.311852
-91.990829 -71.252541 52.586147
-120.294418 -32.974461 62.571911
-100.931496 -47.237003 67.208969
-144.171188 -36.886257 58.771412
-158.575089 -56.680920 58.033749
-155.068527 -80.763008 60.791031
-135.705597 -95.025551 65.428085
-111.828842 -91.113754 69.228584
-97.424934 -71.319092 69.966248
-124.371048 -32.111454 75.657829
-104.378311 -45.667652 79.703224
-148.507919 -36.199276 76.397438
-162.649857 -55.536526 81.488777
-158.512711 -78.795708 87.949425
-138.519958 -92.351906 91.994820
-114.383095 -88.264084 91.255211
-100.241165 -68.926834 86.163872
-125.881371 -28.982241 88.510353
-105.583031 -42.318451 91.667625
-149.615753 -32.072762 93.703972
-162.882889 -49.779625 104.206139
-157.911072 -71.730392 113.864830
-137.612732 -85.066605 117.022102
-113.878357 -81.976082 111.828484
-100.611221 -64.269218 101.326317
-124.805878 -23.412203 101.139725
-104.524773 -36.962345 103.356888
-147.537613 -24.655384 110.171257
-159.404007 -39.963650 125.160950
-153.453918 -60.369625 137.328018
-133.172821 -73.919769 139.545181
-110.441086 -72.676590 130.513657
-98.574684 -57.368320 115.523972
-121.121483 -15.393106 113.187775
-101.130402 -29.477242 114.543854
-142.407028 -14.328160 125.255783
-152.518265 -26.906239 143.678589
-145.532150 -45.759274 157.664383
-125.541054 -59.843410 159.020462
-104.255508 -60.908360 146.952454
-94.144287 -48.330280 128.529633
-114.919304 -5.239551 124.077316
-95.456047 -20.094091 124.685219
-134.430664 -1.662681 138.442474
-142.560638 -11.458766 159.365799
-134.546799 -28.889391 174.590683
-115.083534 -43.743935 175.198578
-95.572174 -47.320805 160.833405
-87.442207 -37.524719 139.910080
-106.443642 6.443309 133.218048
-87.752716 -9.383695 133.191345
-123.874107 12.631130 149.272171
-129.833603 5.555023 171.949448
-120.831100 -10.639922 187.965820
-102.140175 -26.466925 187.939117
-84.709709 -32.654747 171.884995
-78.750229 -25.578638 149.207718
-96.072456 18.877075 140.129669
-78.446800 1.880192 139.593307
-111.049324 27.757479 157.353989
-114.604164 23.319384 181.176498
-104.654594 8.162566 197.642288
-87.028938 -8.834315 197.105927
-72.052071 -17.714716 179.881607
-68.497231 -13.276625 156.059097
-84.280144 31.235535 144.491898
-68.094521 12.875285 143.613205
-96.302170 42.883579 162.370361
-97.118263 40.996151 186.775620
-86.250359 26.678886 203.411423
-70.064735 8.318637 202.532730
-58.042713 -3.329410 184.654266
-57.226620 -1.441983 160.249008
-71.585251 42.765949 146.157639
-57.313972 22.885584 145.184616
-80.000450 57.183247 164.078888
-77.630058 57.692013 188.450348
-65.862617 43.994225 204.995529
-51.591343 24.113857 204.022507
-43.176140 9.696561 186.101257
-45.546532 9.187793 161.729797
-58.459217 52.903095 145.127457
-46.658062 31.453745 144.418015
-62.525433 69.872192 162.313522
-56.474766 72.420776 185.908859
-43.851627 59.055916 202.091629
-32.050472 37.606564 201.382187
-27.984259 20.637463 184.196121
-34.034924 18.088882 160.600784
-45.192623 61.324802 141.447327
-36.417049 38.459225 141.455185
-44.273289 80.232895 156.987076
-34.197582 84.107414 178.971481
-20.867714 70.678703 194.522354
-12.092141 47.813129 194.530212
-13.011475 28.905033 178.990463
-23.087181 25.030519 157.006058
-31.821602 67.844887 135.038681
-26.486008 43.970715 136.222122
-25.676559 87.631866 148.098495
-11.650558 91.740707 167.751328
2.040160 77.764511 182.484818
7.375754 53.890339 183.668259
1.230710 34.103359 170.608444
-12.795293 29.994518 150.955612
-18.287529 72.160591 125.634079
-16.537224 47.879982 128.323654
-7.250510 91.545258 135.746643
10.108499 94.678719 152.737564
23.620827 79.725418 166.653793
25.371132 55.444817 169.343384
14.334113 36.060146 159.230804
-3.024896 32.926689 142.239883
-4.766310 73.737358 112.982773
-6.430094 49.689434 117.315727
10.357903 91.619698 120.146935
30.082991 92.861229 134.611526
42.854259 76.734665 147.903412
41.190479 52.686745 152.236359
26.066263 34.804401 145.072189
6.341177 33.562874 130.607590
8.174968 72.020950 97.134064
3.562646 48.717960 103.095795
26.381285 87.771591 101.638786
47.516579 86.743370 113.971153
59.200085 69.538605 126.907028
54.587765 46.235615 132.868744
36.381451 30.484974 128.364014
15.246154 31.513195 116.031670
19.734009 66.763008 78.502914
12.859485 44.484837 86.004189
40.053814 80.262627 80.673378
61.915840 77.075798 91.244148
72.513611 59.069332 104.023018
65.639091 36.791157 111.524292
45.319279 23.291536 109.353828
23.457253 26.478365 98.783058
29.161932 58.179981 57.732258
20.804382 36.955963 66.650658
50.790600 69.670967 57.787533
73.020615 64.697670 66.784111
82.829918 46.173378 79.451912
74.472374 24.949364 88.370308
52.843700 13.458369 88.315033
30.613691 18.431667 79.318459
35.976261 46.901592 35.524975
26.854420 26.576588 45.700008
58.305779 56.772533 33.574970
80.762642 50.407146 40.992283
90.191925 31.534191 53.431950
81.070084 11.209182 63.606983
58.740562 1.338240 65.556992
36.283703 7.703627 58.139675
40.019215 33.825508 12.535070
30.657084 14.166377 23.747316
62.621387 42.422058 8.650965
85.223564 34.920284 14.370258
94.585693 15.714623 26.342665
85.223564 -3.944508 37.554913
62.621387 -12.541058 41.439014
40.019215 -5.039284 35.719723
32.035686 0.774120 1.297670
3 0 1 2
3 3 4 1
3 5 6 4
3 7 8 6
3 9 8 7
3 10 9 11
3 12 10 13
3 2 12 14
3 1 15 16
3 4 17 15
3 6 18 17
3 8 19 18
3 9 20 19
3 21 20 9
3 22 21 10
3 16 22 12
3 15 23 24
3 17 25 23
3 18 26 25
3 19 27 26
3 20 28 27
3 29 28 20
3 30 29 21
3 24 30 22
3 23 31 32
3 25 33 31
3 26 34 33
3 27 35 34
3 28 36 35
3 29 37 36
3 38 37 29
3 24 32 38
3 31 39 40
3 33 41 39
3 34 42 41
3 35 43 42
3 36 44 43
3 37 45 44
3 46 45 37
3 32 40 46
3 39 47 48
3 41 49 47
3 42 50 49
3 43 51 50
3 44 52 51
3 45 53 52
3 54 53 45
3 40 48 54
3 47 55 56
3 49 57 55
3 50 58 57
3 51 59 58
3 52 60 59
3 61 60 52
3 62 61 53
3 56 62 54
3 55 63 64
3 57 65 63
3 58 66 65
3 59 67 66
3 60 68 67
3 69 68 60
3 70 69 61
3 64 70 62
3 63 71 72
3 65 73 71
3 66 74 73
3 67 75 74
3 68 76 75
3 77 76 68
3 78 77 69
3 72 78 70
3 71 79 80
3 73 81 79
3 74 82 81
3 75 83 82
3 84 83 75
3 85 84 76
3 86 85 77
3 80 86 78
3 79 87 88
3 81 89 87
3 82 90 89
3 83 91 90
3 92 91 83
3 93 92 84
3 94 93 85
3 88 94 86
3 87 95 96
3 89 97 95
3 90 98 97
3 91 99 98
3 100 99 91
3 101 100 92
3 102 101 93
3 96 102 94
3 95 103 104
3 97 105 103
3 98 106 105
3 99 107 106
3 108 107 99
3 109 108 100
3 110 109 101
3 104 110 102
3 103 111 112
3 105 113 111
3 106 114 113
3 107 115 114
3 116 115 107
3 117 116 108
3 118 117 109
3 112 118 110
3 111 119 120
3 113 121 119
3 114 122 121
3 115 123 122
3 124 123 115
3 125 124 116
3 126 125 117
3 120 126 118
3 119 127 128
3 121 129 127
3 122 130 129
3 123 131 130
3 132 131 123
3 133 132 124
3 134 133 125
3 128 134 126
3 127 135 136
3 129 137 135
3 130 138 137
3 131 139 138
3 140 139 131
3 141 140 132
3 142 141 133
3 128 136 142
3 135 143 144
3 137 145 143
3 138 146 145
3 139 147 146
3 148 147 139
3 149 148 140
3 150 149 141
3 136 144 150
3 143 151 152
3 145 153 151
3 146 154 153
3 147 155 154
3 156 155 147
3 157 156 148
3 158 157 149
3 144 152 158
3 151 159 160
3 153 161 159
3 154 162 161
3 155 163 162
3 156 164 163
3 165 164 156
3 158 166 165
3 152 160 166
3 159 167 168
3 161 169 167
3 162 170 169
3 163 171 170
3 164 172 171
3 173 172 164
3 166 174 173
3 160 168 174
3 167 175 176
3 169 177 175
3 170 178 177
3 171 179 178
3 172 180 179
3 181 180 172
3 174 182 181
3 168 176 182
3 175 183 184
3 177 185 183
3 178 186 185
3 179 187 186
3 180 188 187
3 189 188 180
3 182 190 189
3 176 184 190
3 183 191 192
3 185 193 191
3 186 194 193
3 187 195 194
3 196 195 187
3 197 196 188
3 198 197 189
3 184 192 198
3 191 199 200
3 193 201 199
3 194 202 201
3 195 203 202
3 204 203 195
3 205 204 196
3 206 205 197
3 192 200 206
3 199 207 208
3 201 209 207
3 202 210 209
3 203 211 210
3 212 211 203
3 213 212 204
3 214 213 205
3 208 214 206
3 207 215 216
3 209 217 215
3 210 218 217
3 211 219 218
3 220 219 211
3 221 220 212
3 222 221 213
3 216 222 214
3 215 223 224
3 217 225 223
3 218 226 225
3 219 227 226
3 228 227 219
3 229 228 220
3 230 229 221
3 224 230 222
3 223 231 232
3 225 233 231
3 226 234 233
3 227 235 234
3 228 236 235
3 237 236 228
3 238 237 229
3 232 238 230
3 231 239 240
3 233 241 239
3 234 242 241
3 235 243 242
3 236 244 243
3 237 245 244
3 246 245 237
3 232 240 246
3 239 247 248
3 241 249 247
3 242 250 249
3 243 251 250
3 244 252 251
3 245 253 252
3 254 253 245
3 240 248 254
3 247 255 256
3 249 257 255
3 250 258 257
3 251 259 258
3 252 260 259
3 253 261 260
3 262 261 253
3 248 256 262
3 255 263 264
3 257 265 263
3 258 266 265
3 259 267 266
3 260 268 267
3 269 268 260
3 270 269 261
3 256 264 270
3 263 271 272
3 265 273 271
3 266 274 273
3 267 275 274
3 268 276 275
3 277 276 268
3 278 277 269
3 272 278 270
3 271 279 280
3 273 281 279
3 274 282 281
3 275 283 282
3 276 284 283
3 285 284 276
3 286 285 277
3 280 286 278
3 279 287 288
3 281 289 287
3 282 290 289
3 283 291 290
3 284 292 291
3 293 292 284
3 294 293 285
3 288 294 286
3 287 295 296
3 289 297 295
3 290 298 297
3 291 299 298
3 300 299 291
3 301 300 292
3 302 301 293
3 296 302 294
3 295 303 304
3 297 305 303
3 298 306 305
3 299 307 306
3 308 307 299
3 309 308 300
3 310 309 301
3 304 310 302
3 303 311 312
3 305 313 311
3 306 314 313
3 307 315 314
3 316 315 307
3 317 316 308
3 318 317 309
3 312 318 310
3 311 319 320
3 313 321 319
3 314 322 321
3 315 323 322
3 324 323 315
3 325 324 316
3 326 325 317
3 320 326 318
3 319 327 328
3 321 329 327
3 322 330 329
3 323 331 330
3 332 331 323
3 333 332 324
3 334 333 325
3 328 334 326
3 327 335 336
3 329 337 335
3 330 338 337
3 331 339 338
3 340 339 331
3 341 340 332
3 342 341 333
3 336 342 334
3 335 343 344
3 337 345 343
3 338 346 345
3 339 347 346
3 348 347 339
3 349 348 340
3 350 349 341
3 344 350 342
3 343 351 352
3 345 353 351
3 346 354 353
3 347 355 354
3 356 355 347
3 357 356 348
3 358 357 349
3 344 352 358
3 351 359 360
3 353 361 359
3 354 362 361
3 355 363 362
3 364 363 355
3 365 364 356
3 366 365 357
3 352 360 366
3 359 367 368
3 361 369 367
3 362 370 369
3 363 371 370
3 372 371 363
3 373 372 364
3 374 373 365
3 360 368 374
3 367 375 376
3 369 377 375
3 370 378 377
3 371 379 378
3 372 380 379
3 381 380 372
3 374 382 381
3 368 376 382
3 375 383 384
3 377 385 383
3 378 386 385
3 379 387 386
3 380 388 387
3 389 388 380
3 382 390 389
3 376 384 390
3 383 391 392
3 385 393 391
3 386 394 393
3 387 395 394
3 388 396 395
3 397 396 388
3 390 398 397
3 384 392 398
3 391 399 400
3 393 401 399
3 394 402 401
3 395 403 402
3 396 404 403
3 405 404 396
3 398 406 405
3 392 400 406
3 399 407 408
3 401 409 407
3 402 410 409
3 403 411 410
3 412 411 403
3 413 412 404
3 414 413 405
3 400 408 414
3 407 415 416
3 409 417 415
3 410 418 417
3 411 419 418
3 420 419 411
3 421 420 412
3 422 421 413
3 408 416 422
3 415 423 424
3 417 425 423
3 418 426 425
3 419 427 426
3 428 427 419
3 429 428 420
3 430 429 421
3 424 430 422
3 423 431 432
3 425 433 431
3 426 434 433
3 427 435 434
3 436 435 427
3 437 436 428
3 438 437 429
3 432 438 430
3 431 439 440
3 433 441 439
3 434 442 441
3 435 443 442
3 436 444 443
3 445 444 436
3 446 445 437
3 440 446 438
3 439 447 448
3 441 449 447
3 442 450 449
3 443 451 450
3 444 452 451
3 453 452 444
3 454 453 445
3 448 454 446
3 447 455 456
3 449 457 455
3 450 458 457
3 451 459 458
3 452 460 459
3 453 461 460
3 462 461 453
3 448 456 462
3 455 463 464
3 457 465 463
3 458 466 465
3 459 467 466
3 460 468 467
3 461 469 468
3 470 469 461
3 456 464 470
3 463 471 472
3 465 473 471
3 466 474 473
3 467 475 474
3 468 476 475
3 469 477 476
3 478 477 469
3 464 472 478
3 471 479 480
3 473 481 479
3 474 482 481
3 475 483 482
3 476 484 483
3 485 484 476
3 486 485 477
3 472 480 486
3 479 487 488
3 481 489 487
3 482 490 489
3 483 491 490
3 484 492 491
3 493 492 484
3 494 493 485
3 488 494 486
3 487 495 496
3 489 497 495
3 490 498 497
3 491 499 498
3 492 500 499
3 501 500 492
3 502 501 493
3 496 502 494
3 495 503 504
3 497 505 503
3 498 506 505
3 499 507 506
3 500 508 507
3 509 508 500
3 510 509 501
3 504 510 502
3 503 511 512
3 505 513 511
3 506 514 513
3 507 515 514
3 516 515 507
3 517 516 508
3 518 517 509
3 512 518 510
3 511 519 520
3 513 521 519
3 514 522 521
3 515 523 522
3 524 523 515
3 525 524 516
3 526 525 517
3 520 526 518
3 519 527 528
3 521 529 527
3 522 530 529
3 523 531 530
3 532 531 523
3 533 532 524
3 534 533 525
3 528 534 526
3 527 535 536
3 529 537 535
3 530 538 537
3 531 539 538
3 540 539 531
3 541 540 532
3 542 541 533
3 536 542 534
3 535 543 544
3 537 545 543
3 538 546 545
3 539 547 546
3 548 547 539
3 549 548 540
3 550 549 541
3 544 550 542
3 543 551 552
3 545 553 551
3 546 554 553
3 547 555 554
3 556 555 547
3 557 556 548
3 558 557 549
3 552 558 550
3 551 559 560
3 553 561 559
3 554 562 561
3 555 563 562
3 564 563 555
3 565 564 556
3 566 565 557
3 560 566 558
3 559 567 568
3 561 569 567
3 562 570 569
3 563 571 570
3 572 571 563
3 573 572 564
3 574 573 565
3 560 568 574
3 567 575 576
3 569 577 575
3 570 578 577
3 571 579 578
3 580 579 571
3 581 580 572
3 582 581 573
3 568 576 582
3 575 583 584
3 577 585 583
3 578 586 585
3 579 587 586
3 588 587 579
3 589 588 580
3 590 589 581
3 576 584 590
3 583 591 592
3 585 593 591
3 586 594 593
3 587 595 594
3 588 596 595
3 597 596 588
3 590 598 597
3 584 592 598
3 591 599 600
3 593 601 599
3 594 602 601
3 595 603 602
3 596 604 603
3 605 604 596
3 598 606 605
3 592 600 606
3 599 607 608
3 601 609 607
3 602 610 609
3 603 611 610
3 604 612 611
3 613 612 604
3 606 614 613
3 600 608 614
3 607 615 616
3 609 617 615
3 610 618 617
3 611 619 618
3 612 620 619
3 621 620 612
3 622 621 613
3 608 616 622
3 615 623 624
3 617 625 623
3 618 626 625
3 619 627 626
3 628 627 619
3 629 628 620
3 630 629 621
3 616 624 630
3 623 631 632
3 625 633 631
3 626 634 633
3 627 635 634
3 636 635 627
3 637 636 628
3 638 637 629
3 632 638 630
3 631 0 639
3 633 3 0
3 634 5 3
3 635 7 5
3 11 7 635
3 13 11 636
3 14 13 637
3 639 14 638
3 639 0 2
3 0 3 1
3 3 5 4
3 5 7 6
3 11 9 7
3 13 10 11
3 14 12 13
3 639 2 14
3 2 1 16
3 1 4 15
3 4 6 17
3 6 8 18
3 8 9 19
3 10 21 9
3 12 22 10
3 2 16 12
3 16 15 24
3 15 17 23
3 17 18 25
3 18 19 26
3 19 20 27
3 21 29 20
3 22 30 21
3 16 24 22
3 24 23 32
3 23 25 31
3 25 26 33
3 26 27 34
3 27 28 35
3 28 29 36
3 30 38 29
3 30 24 38
3 32 31 40
3 31 33 39
3 33 34 41
3 34 35 42
3 35 36 43
3 36 37 44
3 38 46 37
3 38 32 46
3 40 39 48
3 39 41 47
3 41 42 49
3 42 43 50
3 43 44 51
3 44 45 52
3 46 54 45
3 46 40 54
3 48 47 56
3 47 49 55
3 49 50 57
3 50 51 58
3 51 52 59
3 53 61 52
3 54 62 53
3 48 56 54
3 56 55 64
3 55 57 63
3 57 58 65
3 58 59 66
3 59 60 67
3 61 69 60
3 62 70 61
3 56 64 62
3 64 63 72
3 63 65 71
3 65 66 73
3 66 67 74
3 67 68 75
3 69 77 68
3 70 78 69
3 64 72 70
3 72 71 80
3 71 73 79
3 73 74 81
3 74 75 82
3 76 84 75
3 77 85 76
3 78 86 77
3 72 80 78
3 80 79 88
3 79 81 87
3 81 82 89
3 82 83 90
3 84 92 83
3 85 93 84
3 86 94 85
3 80 88 86
3 88 87 96
3 87 89 95
3 89 90 97
3 90 91 98
3 92 100 91
3 93 101 92
3 94 102 93
3 88 96 94
3 96 95 104
3 95 97 103
3 97 98 105
3 98 99 106
3 100 108 99
3 101 109 100
3 102 110 101
3 96 104 102
3 104 103 112
3 103 105 111
3 105 106 113
3 106 107 114
3 108 116 107
3 109 117 108
3 110 118 109
3 104 112 110
3 112 111 120
3 111 113 119
3 113 114 121
3 114 115 122
3 116 124 115
3 117 125 116
3 118 126 117
3 112 120 118
3 120 119 128
3 119 121 127
3 121 122 129
3 122 123 130
3 124 132 123
3 125 133 124
3 126 134 125
3 120 128 126
3 128 127 136
3 127 129 135
3 129 130 137
3 130 131 138
3 132 140 131
3 133 141 132
3 134 142 133
3 134 128 142
3 136 135 144
3 135 137 143
3 137 138 145
3 138 139 146
3 140 148 139
3 141 149 140
3 142 150 141
3 142 136 150
3 144 143 152
3 143 145 151
3 145 146 153
3 146 147 154
3 148 156 147
3 149 157 148
3 150 158 149
3 150 144 158
3 152 151 160
3 151 153 159
3 153 154 161
3 154 155 162
3 155 156 163
3 157 165 156
3 157 158 165
3 158 152 166
3 160 159 168
3 159 161 167
3 161 162 169
3 162 163 170
3 163 164 171
3 165 173 164
3 165 166 173
3 166 160 174
3 168 167 176
3 167 169 175
3 169 170 177
3 170 171 178
3 171 172 179
3 173 181 172
3 173 174 181
3 174 168 182
3 176 175 184
3 175 177 183
3 177 178 185
3 178 179 186
3 179 180 187
3 181 189 180
3 181 182 189
3 182 176 190
3 184 183 192
3 183 185 191
3 185 186 193
3 186 187 194
3 188 196 187
3 189 197 188
3 190 198 189
3 190 184 198
3 192 191 200
3 191 193 199
3 193 194 201
3 194 195 202
3 196 204 195
3 197 205 196
3 198 206 197
3 198 192 206
3 200 199 208
3 199 201 207
3 201 202 209
3 202 203 210
3 204 212 203
3 205 213 204
3 206 214 205
3 200 208 206
3 208 207 216
3 207 209 215
3 209 210 217
3 210 211 218
3 212 220 211
3 213 221 212
3 214 222 213
3 208 216 214
3 216 215 224
3 215 217 223
3 217 218 225
3 218 219 226
3 220 228 219
3 221 229 220
3 222 230 221
3 216 224 222
3 224 223 232
3 223 225 231
3 225 226 233
3 226 227 234
3 227 228 235
3 229 237 228
3 230 238 229
3 224 232 230
3 232 231 240
3 231 233 239
3 233 234 241
3 234 235 242
3 235 236 243
3 236 237 244
3 238 246 237
3 238 232 246
3 240 239 248
3 239 241 247
3 241 242 249
3 242 243 250
3 243 244 251
3 244 245 252
3 246 254 245
3 246 240 254
3 248 247 256
3 247 249 255
3 249 250 257
3 250 251 258
3 251 252 259
3 252 253 260
3 254 262 253
3 254 248 262
3 256 255 264
3 255 257 263
3 257 258 265
3 258 259 266
3 259 260 267
3 261 269 260
3 262 270 261
3 262 256 270
3 264 263 272
3 263 265 271
3 265 266 273
3 266 267 274
3 267 268 275
3 269 277 268
3 270 278 269
3 264 272 270
3 272 271 280
3 271 273 279
3 273 274 281
3 274 275 282
3 275 276 283
3 277 285 276
3 278 286 277
3 272 280 278
3 280 279 288
3 279 281 287
3 281 282 289
3 282 283 290
3 283 284 291
3 285 293 284
3 286 294 285
3 280 288 286
3 288 287 296
3 287 289 295
3 289 290 297
3 290 291 298
3 292 300 291
3 293 301 292
3 294 302 293
3 288 296 294
3 296 295 304
3 295 297 303
3 297 298 305
3 298 299 306
3 300 308 299
3 301 309 300
3 302 310 301
3 296 304 302
3 304 303 312
3 303 305 311
3 305 306 313
3 306 307 314
3 308 316 307
3 309 317 308
3 310 318 309
3 304 312 310
3 312 311 320
3 311 313 319
3 313 314 321
3 314 315 322
3 316 324 315
3 317 325 316
3 318 326 317
3 312 320 318
3 320 319 328
3 319 321 327
3 321 322 329
3 322 323 330
3 324 332 323
3 325 333 324
3 326 334 325
3 320 328 326
3 328 327 336
3 327 329 335
3 329 330 337
3 330 331 338
3 332 340 331
3 333 341 332
3 334 342 333
3 328 336 334
3 336 335 344
3 335 337 343
3 337 338 345
3 338 339 346
3 340 348 339
3 341 349 340
3 342 350 341
3 336 344 342
3 344 343 352
3 343 345 351
3 345 346 353
3 346 347 354
3 348 356 347
3 349 357 348
3 350 358 349
3 350 344 358
3 352 351 360
3 351 353 359
3 353 354 361
3 354 355 362
3 356 364 355
3 357 365 356
3 358 366 357
3 358 352 366
3 360 359 368
3 359 361 367
3 361 362 369
3 362 363 370
3 364 372 363
3 365 373 364
3 366 374 365
3 366 360 374
3 368 367 376
3 367 369 375
3 369 370 377
3 370 371 378
3 371 372 379
3 373 381 372
3 373 374 381
3 374 368 382
3 376 375 384
3 375 377 383
3 377 378 385
3 378 379 386
3 379 380 387
3 381 389 380
3 381 382 389
3 382 376 390
3 384 383 392
3 383 385 391
3 385 386 393
3 386 387 394
3 387 388 395
3 389 397 388
3 389 390 397
3 390 384 398
3 392 391 400
3 391 393 399
3 393 394 401
3 394 395 402
3 395 396 403
3 397 405 396
3 397 398 405
3 398 392 406
3 400 399 408
3 399 401 407
3 401 402 409
3 402 403 410
3 404 412 403
3 405 413 404
3 406 414 405
3 406 400 414
3 408 407 416
3 407 409 415
3 409 410 417
3 410 411 418
3 412 420 411
3 413 421 412
3 414 422 413
3 414 408 422
3 416 415 424
3 415 417 423
3 417 418 425
3 418 419 426
3 420 428 419
3 421 429 420
3 422 430 421
3 416 424 422
3 424 423 432
3 423 425 431
3 425 426 433
3 426 427 434
3 428 436 427
3 429 437 428
3 430 438 429
3 424 432 430
3 432 431 440
3 431 433 439
3 433 434 441
3 434 435 442
3 435 436 443
3 437 445 436
3 438 446 437
3 432 440 438
3 440 439 448
3 439 441 447
3 441 442 449
3 442 443 450
3 443 444 451
3 445 453 444
3 446 454 445
3 440 448 446
3 448 447 456
3 447 449 455
3 449 450 457
3 450 451 458
3 451 452 459
3 452 453 460
3 454 462 453
3 454 448 462
3 456 455 464
3 455 457 463
3 457 458 465
3 458 459 466
3 459 460 467
3 460 461 468
3 462 470 461
3 462 456 470
3 464 463 472
3 463 465 471
3 465 466 473
3 466 467 474
3 467 468 475
3 468 469 476
3 470 478 469
3 470 464 478
3 472 471 480
3 471 473 479
3 473 474 481
3 474 475 482
3 475 476 483
3 477 485 476
3 478 486 477
3 478 472 486
3 480 479 488
3 479 481 487
3 481 482 489
3 482 483 490
3 483 484 491
3 485 493 484
3 486 494 485
3 480 488 486
3 488 487 496
3 487 489 495
3 489 490 497
3 490 491 498
3 491 492 499
3 493 501 492
3 494 502 493
3 488 496 494
3 496 495 504
3 495 497 503
3 497 498 505
3 498 499 506
3 499 500 507
3 501 509 500
3 502 510 501
3 496 504 502
3 504 503 512
3 503 505 511
3 505 506 513
3 506 507 514
3 508 516 507
3 509 517 508
3 510 518 509
3 504 512 510
3 512 511 520
3 511 513 519
3 513 514 521
3 514 515 522
3 516 524 515
3 517 525 516
3 518 526 517
3 512 520 518
3 520 519 528
3 519 521 527
3 521 522 529
3 522 523 530
3 524 532 523
3 525 533 524
3 526 534 525
3 520 528 526
3 528 527 536
3 527 529 535
3 529 530 537
3 530 531 538
3 532 540 531
3 533 541 532
3 534 542 533
3 528 536 534
3 536 535 544
3 535 537 543
3 537 538 545
3 538 539 546
3 540 548 539
3 541 549 540
3 542 550 541
3 536 544 542
3 544 543 552
3 543 545 551
3 545 546 553
3 546 547 554
3 548 556 547
3 549 557 548
3 550 558 549
3 544 552 550
3 552 551 560
3 551 553 559
3 553 554 561
3 554 555 562
3 556 564 555
3 557 565 556
3 558 566 557
3 552 560 558
3 560 559 568
3 559 561 567
3 561 562 569
3 562 563 570
3 564 572 563
3 565 573 564
3 566 574 565
3 566 560 574
3 568 567 576
3 567 569 575
3 569 570 577
3 570 571 578
3 572 580 571
3 573 581 572
3 574 582 573
3 574 568 582
3 576 575 584
3 575 577 583
3 577 578 585
3 578 579 586
3 580 588 579
3 581 589 580
3 582 590 581
3 582 576 590
3 584 583 592
3 583 585 591
3 585 586 593
3 586 587 594
3 587 588 595
3 589 597 588
3 589 590 597
3 590 584 598
3 592 591 600
3 591 593 599
3 593 594 601
3 594 595 602
3 595 596 603
3 597 605 596
3 597 598 605
3 598 592 606
3 600 599 608
3 599 601 607
3 601 602 609
3 602 603 610
3 603 604 611
3 605 613 604
3 605 606 613
3 606 600 614
3 608 607 616
3 607 609 615
3 609 610 617
3 610 611 618
3 611 612 619
3 613 621 612
3 614 622 613
3 614 608 622
3 616 615 624
3 615 617 623
3 617 618 625
3 618 619 626
3 620 628 619
3 621 629 620
3 622 630 621
3 622 616 630
3 624 623 632
3 623 625 631
3 625 626 633
3 626 627 634
3 628 636 627
3 629 637 628
3 630 638 629
3 624 632 630
3 632 631 639
3 631 633 0
3 633 634 3
3 634 635 5
3 636 11 635
3 637 13 636
3 638 14 637
3 632 639 638
